<svg width="1062" height="1080" viewBox="0 0 1062 1080" fill="none" xmlns="http://www.w3.org/2000/svg">
<g clip-path="url(#clip0_1_3)">
<rect width="1062" height="1080" fill="url(#paint0_linear_1_3)"/>
<path d="M181.488 505.728C181.488 509.312 180.624 512.672 178.896 515.808C177.232 518.944 174.576 521.472 170.928 523.392C167.344 525.312 162.8 526.272 157.296 526.272H146.064V552H132.624V484.992H157.296C162.48 484.992 166.896 485.888 170.544 487.68C174.192 489.472 176.912 491.936 178.704 495.072C180.56 498.208 181.488 501.76 181.488 505.728ZM156.72 515.424C160.432 515.424 163.184 514.592 164.976 512.928C166.768 511.2 167.664 508.8 167.664 505.728C167.664 499.2 164.016 495.936 156.72 495.936H146.064V515.424H156.72ZM214.646 552.864C209.526 552.864 204.918 551.744 200.822 549.504C196.726 547.2 193.494 543.968 191.126 539.808C188.822 535.648 187.67 530.848 187.67 525.408C187.67 519.968 188.854 515.168 191.222 511.008C193.654 506.848 196.95 503.648 201.11 501.408C205.27 499.104 209.91 497.952 215.03 497.952C220.15 497.952 224.79 499.104 228.95 501.408C233.11 503.648 236.374 506.848 238.742 511.008C241.174 515.168 242.39 519.968 242.39 525.408C242.39 530.848 241.142 535.648 238.646 539.808C236.214 543.968 232.886 547.2 228.662 549.504C224.502 551.744 219.83 552.864 214.646 552.864ZM214.646 541.152C217.078 541.152 219.35 540.576 221.462 539.424C223.638 538.208 225.366 536.416 226.646 534.048C227.926 531.68 228.566 528.8 228.566 525.408C228.566 520.352 227.222 516.48 224.534 513.792C221.91 511.04 218.678 509.664 214.838 509.664C210.998 509.664 207.766 511.04 205.142 513.792C202.582 516.48 201.302 520.352 201.302 525.408C201.302 530.464 202.55 534.368 205.046 537.12C207.606 539.808 210.806 541.152 214.646 541.152ZM265.689 507.072C267.417 504.256 269.657 502.048 272.409 500.448C275.225 498.848 278.425 498.048 282.009 498.048V512.16H278.457C274.233 512.16 271.033 513.152 268.857 515.136C266.745 517.12 265.689 520.576 265.689 525.504V552H252.249V498.816H265.689V507.072ZM306.71 509.856V535.584C306.71 537.376 307.126 538.688 307.958 539.52C308.854 540.288 310.326 540.672 312.374 540.672H318.614V552H310.166C298.838 552 293.174 546.496 293.174 535.488V509.856H286.838V498.816H293.174V485.664H306.71V498.816H318.614V509.856H306.71ZM352.664 509.856H343.352V552H329.72V509.856H323.672V498.816H329.72V496.128C329.72 489.6 331.576 484.8 335.288 481.728C339 478.656 344.6 477.216 352.088 477.408V488.736C348.824 488.672 346.552 489.216 345.272 490.368C343.992 491.52 343.352 493.6 343.352 496.608V498.816H352.664V509.856ZM384.99 552.864C379.87 552.864 375.262 551.744 371.166 549.504C367.07 547.2 363.838 543.968 361.47 539.808C359.166 535.648 358.014 530.848 358.014 525.408C358.014 519.968 359.198 515.168 361.566 511.008C363.998 506.848 367.294 503.648 371.454 501.408C375.614 499.104 380.254 497.952 385.374 497.952C390.494 497.952 395.134 499.104 399.294 501.408C403.454 503.648 406.718 506.848 409.086 511.008C411.518 515.168 412.734 519.968 412.734 525.408C412.734 530.848 411.486 535.648 408.99 539.808C406.558 543.968 403.23 547.2 399.006 549.504C394.846 551.744 390.174 552.864 384.99 552.864ZM384.99 541.152C387.422 541.152 389.694 540.576 391.806 539.424C393.982 538.208 395.71 536.416 396.99 534.048C398.27 531.68 398.91 528.8 398.91 525.408C398.91 520.352 397.566 516.48 394.878 513.792C392.254 511.04 389.022 509.664 385.182 509.664C381.342 509.664 378.11 511.04 375.486 513.792C372.926 516.48 371.646 520.352 371.646 525.408C371.646 530.464 372.894 534.368 375.39 537.12C377.95 539.808 381.15 541.152 384.99 541.152ZM436.033 480.96V552H422.593V480.96H436.033ZM456.128 492.48C453.76 492.48 451.776 491.744 450.176 490.272C448.64 488.736 447.872 486.848 447.872 484.608C447.872 482.368 448.64 480.512 450.176 479.04C451.776 477.504 453.76 476.736 456.128 476.736C458.496 476.736 460.448 477.504 461.984 479.04C463.584 480.512 464.384 482.368 464.384 484.608C464.384 486.848 463.584 488.736 461.984 490.272C460.448 491.744 458.496 492.48 456.128 492.48ZM462.752 498.816V552H449.312V498.816H462.752ZM499.646 552.864C494.526 552.864 489.918 551.744 485.822 549.504C481.726 547.2 478.494 543.968 476.126 539.808C473.822 535.648 472.67 530.848 472.67 525.408C472.67 519.968 473.854 515.168 476.222 511.008C478.654 506.848 481.95 503.648 486.11 501.408C490.27 499.104 494.91 497.952 500.03 497.952C505.15 497.952 509.79 499.104 513.95 501.408C518.11 503.648 521.374 506.848 523.742 511.008C526.174 515.168 527.39 519.968 527.39 525.408C527.39 530.848 526.142 535.648 523.646 539.808C521.214 543.968 517.886 547.2 513.662 549.504C509.502 551.744 504.83 552.864 499.646 552.864ZM499.646 541.152C502.078 541.152 504.35 540.576 506.462 539.424C508.638 538.208 510.366 536.416 511.646 534.048C512.926 531.68 513.566 528.8 513.566 525.408C513.566 520.352 512.222 516.48 509.534 513.792C506.91 511.04 503.678 509.664 499.838 509.664C495.998 509.664 492.766 511.04 490.142 513.792C487.582 516.48 486.302 520.352 486.302 525.408C486.302 530.464 487.55 534.368 490.046 537.12C492.606 539.808 495.806 541.152 499.646 541.152ZM594.684 552L579.9 525.888H573.564V552H560.124V484.992H585.276C590.46 484.992 594.876 485.92 598.524 487.776C602.172 489.568 604.892 492.032 606.684 495.168C608.54 498.24 609.468 501.696 609.468 505.536C609.468 509.952 608.188 513.952 605.628 517.536C603.068 521.056 599.26 523.488 594.204 524.832L610.236 552H594.684ZM573.564 515.808H584.796C588.444 515.808 591.164 514.944 592.956 513.216C594.748 511.424 595.644 508.96 595.644 505.824C595.644 502.752 594.748 500.384 592.956 498.72C591.164 496.992 588.444 496.128 584.796 496.128H573.564V515.808ZM671.832 498.816V552H658.296V545.28C656.568 547.584 654.296 549.408 651.48 550.752C648.728 552.032 645.72 552.672 642.456 552.672C638.296 552.672 634.616 551.808 631.416 550.08C628.216 548.288 625.688 545.696 623.832 542.304C622.04 538.848 621.144 534.752 621.144 530.016V498.816H634.584V528.096C634.584 532.32 635.64 535.584 637.752 537.888C639.864 540.128 642.744 541.248 646.392 541.248C650.104 541.248 653.016 540.128 655.128 537.888C657.24 535.584 658.296 532.32 658.296 528.096V498.816H671.832ZM691.909 492.48C689.541 492.48 687.557 491.744 685.957 490.272C684.421 488.736 683.653 486.848 683.653 484.608C683.653 482.368 684.421 480.512 685.957 479.04C687.557 477.504 689.541 476.736 691.909 476.736C694.277 476.736 696.229 477.504 697.765 479.04C699.365 480.512 700.165 482.368 700.165 484.608C700.165 486.848 699.365 488.736 697.765 490.272C696.229 491.744 694.277 492.48 691.909 492.48ZM698.533 498.816V552H685.093V498.816H698.533ZM791.999 552H778.559L748.127 506.016V552H734.687V484.896H748.127L778.559 530.976V484.896H791.999V552ZM854.72 524.256C854.72 526.176 854.592 527.904 854.336 529.44H815.456C815.776 533.28 817.12 536.288 819.488 538.464C821.856 540.64 824.768 541.728 828.224 541.728C833.216 541.728 836.768 539.584 838.88 535.296H853.376C851.84 540.416 848.896 544.64 844.544 547.968C840.192 551.232 834.848 552.864 828.512 552.864C823.392 552.864 818.784 551.744 814.688 549.504C810.656 547.2 807.488 543.968 805.184 539.808C802.944 535.648 801.824 530.848 801.824 525.408C801.824 519.904 802.944 515.072 805.184 510.912C807.424 506.752 810.56 503.552 814.592 501.312C818.624 499.072 823.264 497.952 828.512 497.952C833.568 497.952 838.08 499.04 842.048 501.216C846.08 503.392 849.184 506.496 851.36 510.528C853.6 514.496 854.72 519.072 854.72 524.256ZM840.8 520.416C840.736 516.96 839.488 514.208 837.056 512.16C834.624 510.048 831.648 508.992 828.128 508.992C824.8 508.992 821.984 510.016 819.68 512.064C817.44 514.048 816.064 516.832 815.552 520.416H840.8ZM880.178 509.856V535.584C880.178 537.376 880.594 538.688 881.426 539.52C882.322 540.288 883.794 540.672 885.842 540.672H892.082V552H883.634C872.306 552 866.642 546.496 866.642 535.488V509.856H860.306V498.816H866.642V485.664H880.178V498.816H892.082V509.856H880.178ZM925.365 552.864C920.245 552.864 915.637 551.744 911.541 549.504C907.445 547.2 904.213 543.968 901.845 539.808C899.541 535.648 898.389 530.848 898.389 525.408C898.389 519.968 899.573 515.168 901.941 511.008C904.373 506.848 907.669 503.648 911.829 501.408C915.989 499.104 920.629 497.952 925.749 497.952C930.869 497.952 935.509 499.104 939.669 501.408C943.829 503.648 947.093 506.848 949.461 511.008C951.893 515.168 953.109 519.968 953.109 525.408C953.109 530.848 951.861 535.648 949.365 539.808C946.933 543.968 943.605 547.2 939.381 549.504C935.221 551.744 930.549 552.864 925.365 552.864ZM925.365 541.152C927.797 541.152 930.069 540.576 932.181 539.424C934.357 538.208 936.085 536.416 937.365 534.048C938.645 531.68 939.285 528.8 939.285 525.408C939.285 520.352 937.941 516.48 935.253 513.792C932.629 511.04 929.397 509.664 925.557 509.664C921.717 509.664 918.485 511.04 915.861 513.792C913.301 516.48 912.021 520.352 912.021 525.408C912.021 530.464 913.269 534.368 915.765 537.12C918.325 539.808 921.525 541.152 925.365 541.152Z" fill="white"/>
<path d="M126 398C168.5 347.49 290.3 256.6 437.5 297.121C621.5 347.774 739.5 430 899 309.04" stroke="url(#paint1_linear_1_3)" stroke-dasharray="4 12"/>
<path d="M919 748C876.5 697.49 754.7 606.6 607.5 647.121C423.5 697.774 305.5 780 146 659.04" stroke="url(#paint2_linear_1_3)" stroke-dasharray="4 12"/>
<path d="M144 717H132C128.686 717 126 719.686 126 723V735C126 738.314 128.686 741 132 741H144C147.314 741 150 738.314 150 735V723C150 719.686 147.314 717 144 717Z" stroke="white" stroke-width="3" stroke-linecap="round" stroke-linejoin="round"/>
<path d="M142.8 728.244C142.948 729.243 142.777 730.263 142.312 731.159C141.847 732.055 141.112 732.782 140.21 733.236C139.308 733.69 138.286 733.848 137.289 733.687C136.293 733.527 135.372 733.056 134.658 732.342C133.944 731.628 133.473 730.707 133.313 729.711C133.152 728.714 133.31 727.692 133.764 726.79C134.218 725.888 134.945 725.152 135.841 724.687C136.737 724.222 137.757 724.052 138.756 724.2C139.775 724.351 140.718 724.826 141.446 725.554C142.174 726.282 142.649 727.225 142.8 728.244Z" stroke="white" stroke-width="3" stroke-linecap="round" stroke-linejoin="round"/>
<path d="M144.6 722.4H144.612" stroke="white" stroke-width="2.5" stroke-linecap="round" stroke-linejoin="round"/>
<path d="M175.57 739.56C174.248 739.56 173.077 739.379 172.054 739.017C171.035 738.659 170.177 738.131 169.478 737.432C168.779 736.737 168.248 735.885 167.886 734.875C167.524 733.865 167.343 732.712 167.343 731.417C167.343 730.156 167.526 729.022 167.893 728.016C168.259 727.011 168.792 726.154 169.491 725.447C170.194 724.735 171.048 724.192 172.054 723.817C173.06 723.442 174.202 723.254 175.48 723.254C176.703 723.254 177.781 723.446 178.714 723.83C179.648 724.213 180.432 724.739 181.067 725.408C181.706 726.077 182.187 726.844 182.511 727.71C182.835 728.575 182.997 729.489 182.997 730.452C182.997 731.125 182.954 731.783 182.869 732.427C182.784 733.066 182.626 733.646 182.396 734.165C182.17 734.681 181.842 735.094 181.412 735.406C180.986 735.712 180.432 735.872 179.75 735.885C179.388 735.898 179.036 735.855 178.695 735.757C178.354 735.659 178.065 735.501 177.826 735.284C177.587 735.062 177.442 734.781 177.391 734.44H177.315C177.212 734.692 177.042 734.926 176.803 735.143C176.565 735.357 176.26 735.527 175.889 735.655C175.523 735.778 175.097 735.83 174.611 735.808C174.074 735.787 173.59 735.665 173.16 735.444C172.729 735.222 172.361 734.915 172.054 734.523C171.751 734.131 171.519 733.667 171.357 733.13C171.195 732.593 171.114 731.996 171.114 731.34C171.114 730.71 171.206 730.145 171.389 729.646C171.572 729.143 171.822 728.711 172.137 728.349C172.457 727.982 172.823 727.692 173.236 727.479C173.65 727.266 174.087 727.132 174.547 727.077C174.994 727.026 175.405 727.038 175.78 727.115C176.155 727.192 176.467 727.309 176.714 727.467C176.965 727.624 177.123 727.797 177.187 727.984H177.27V727.268H178.842V733.2C178.842 733.537 178.93 733.822 179.104 734.057C179.283 734.291 179.537 734.408 179.865 734.408C180.253 734.408 180.555 734.266 180.773 733.98C180.994 733.695 181.15 733.256 181.239 732.663C181.333 732.071 181.38 731.312 181.38 730.388C181.38 729.74 181.293 729.131 181.118 728.56C180.947 727.984 180.694 727.464 180.357 727C180.025 726.531 179.616 726.129 179.13 725.792C178.644 725.455 178.09 725.195 177.468 725.012C176.85 724.829 176.166 724.737 175.416 724.737C174.398 724.737 173.492 724.895 172.699 725.21C171.907 725.521 171.238 725.971 170.692 726.559C170.151 727.147 169.74 727.852 169.459 728.675C169.182 729.493 169.043 730.411 169.043 731.43C169.043 732.491 169.186 733.433 169.472 734.255C169.757 735.073 170.179 735.763 170.737 736.326C171.295 736.888 171.986 737.315 172.808 737.604C173.631 737.898 174.579 738.045 175.653 738.045C176.13 738.045 176.599 738.003 177.059 737.918C177.519 737.837 177.928 737.743 178.286 737.636C178.648 737.534 178.919 737.451 179.098 737.387L179.545 738.787C179.281 738.911 178.93 739.032 178.491 739.151C178.056 739.271 177.583 739.369 177.072 739.445C176.565 739.522 176.064 739.56 175.57 739.56ZM174.981 734.242C175.535 734.242 175.981 734.131 176.317 733.91C176.658 733.688 176.903 733.358 177.052 732.919C177.206 732.476 177.283 731.922 177.283 731.257C177.278 730.609 177.195 730.094 177.033 729.71C176.876 729.322 176.628 729.045 176.292 728.879C175.959 728.709 175.531 728.624 175.007 728.624C174.525 728.624 174.114 728.741 173.773 728.975C173.437 729.21 173.179 729.527 173 729.928C172.825 730.328 172.736 730.773 172.731 731.263C172.736 731.779 172.808 732.265 172.949 732.721C173.094 733.173 173.328 733.539 173.652 733.82C173.98 734.102 174.423 734.242 174.981 734.242ZM185.108 736V726.182H186.955V727.741H187.058C187.237 727.213 187.552 726.798 188.004 726.495C188.46 726.188 188.975 726.035 189.551 726.035C189.67 726.035 189.81 726.039 189.972 726.048C190.139 726.056 190.269 726.067 190.362 726.08V727.908C190.286 727.886 190.149 727.863 189.953 727.837C189.757 727.808 189.561 727.793 189.365 727.793C188.913 727.793 188.511 727.888 188.157 728.08C187.808 728.268 187.531 728.53 187.326 728.866C187.122 729.199 187.019 729.578 187.019 730.004V736H185.108ZM198.236 731.928V726.182H200.153V736H198.274V734.3H198.172C197.946 734.824 197.584 735.261 197.085 735.61C196.591 735.955 195.975 736.128 195.238 736.128C194.607 736.128 194.049 735.989 193.563 735.712C193.082 735.431 192.702 735.016 192.425 734.466C192.153 733.916 192.016 733.237 192.016 732.427V726.182H193.927V732.197C193.927 732.866 194.113 733.398 194.484 733.795C194.854 734.191 195.336 734.389 195.928 734.389C196.286 734.389 196.642 734.3 196.996 734.121C197.354 733.942 197.65 733.671 197.884 733.309C198.123 732.947 198.24 732.487 198.236 731.928ZM202.721 736V726.182H204.633V736H202.721ZM203.687 724.667C203.354 724.667 203.069 724.556 202.83 724.335C202.596 724.109 202.478 723.84 202.478 723.529C202.478 723.214 202.596 722.945 202.83 722.724C203.069 722.498 203.354 722.385 203.687 722.385C204.019 722.385 204.302 722.498 204.537 722.724C204.775 722.945 204.895 723.214 204.895 723.529C204.895 723.84 204.775 724.109 204.537 724.335C204.302 724.556 204.019 724.667 203.687 724.667ZM208.463 736.121C208.114 736.121 207.813 735.998 207.562 735.751C207.31 735.499 207.185 735.197 207.185 734.843C207.185 734.494 207.31 734.195 207.562 733.948C207.813 733.697 208.114 733.571 208.463 733.571C208.812 733.571 209.113 733.697 209.364 733.948C209.616 734.195 209.741 734.494 209.741 734.843C209.741 735.077 209.682 735.293 209.562 735.489C209.447 735.68 209.294 735.834 209.102 735.949C208.91 736.064 208.697 736.121 208.463 736.121ZM220.701 726.182L217.14 736H215.095L211.528 726.182H213.58L216.066 733.737H216.169L218.649 726.182H220.701ZM226.394 736.198C225.427 736.198 224.594 735.991 223.895 735.578C223.2 735.161 222.663 734.575 222.284 733.82C221.909 733.062 221.722 732.173 221.722 731.155C221.722 730.149 221.909 729.263 222.284 728.496C222.663 727.729 223.192 727.13 223.869 726.7C224.551 726.269 225.348 726.054 226.26 726.054C226.814 726.054 227.351 726.146 227.871 726.329C228.391 726.512 228.857 726.8 229.271 727.192C229.684 727.584 230.01 728.093 230.249 728.719C230.487 729.342 230.607 730.098 230.607 730.989V731.666H222.802V730.234H228.734C228.734 729.732 228.631 729.286 228.427 728.898C228.222 728.506 227.935 728.197 227.564 727.972C227.198 727.746 226.767 727.633 226.273 727.633C225.736 727.633 225.267 727.765 224.867 728.029C224.47 728.289 224.163 728.63 223.946 729.052C223.733 729.469 223.627 729.923 223.627 730.413V731.532C223.627 732.188 223.742 732.746 223.972 733.207C224.206 733.667 224.532 734.018 224.95 734.261C225.367 734.5 225.855 734.619 226.413 734.619C226.776 734.619 227.106 734.568 227.404 734.466C227.703 734.359 227.96 734.202 228.178 733.993C228.395 733.784 228.561 733.526 228.676 733.219L230.485 733.545C230.34 734.078 230.08 734.545 229.705 734.945C229.335 735.342 228.868 735.651 228.305 735.872C227.747 736.089 227.11 736.198 226.394 736.198ZM232.727 736V726.182H234.574V727.741H234.677C234.856 727.213 235.171 726.798 235.623 726.495C236.079 726.188 236.594 726.035 237.17 726.035C237.289 726.035 237.43 726.039 237.592 726.048C237.758 726.056 237.888 726.067 237.981 726.08V727.908C237.905 727.886 237.768 727.863 237.572 727.837C237.376 727.808 237.18 727.793 236.984 727.793C236.533 727.793 236.13 727.888 235.776 728.08C235.427 728.268 235.15 728.53 234.945 728.866C234.741 729.199 234.638 729.578 234.638 730.004V736H232.727ZM243.4 739.886C242.62 739.886 241.949 739.784 241.387 739.58C240.829 739.375 240.373 739.104 240.019 738.768C239.665 738.431 239.401 738.063 239.226 737.662L240.869 736.984C240.984 737.172 241.138 737.37 241.329 737.579C241.525 737.792 241.79 737.973 242.122 738.122C242.459 738.271 242.891 738.346 243.419 738.346C244.144 738.346 244.743 738.169 245.216 737.815C245.689 737.466 245.925 736.908 245.925 736.141V734.21H245.804C245.689 734.419 245.522 734.651 245.305 734.907C245.092 735.163 244.798 735.384 244.423 735.572C244.048 735.759 243.56 735.853 242.959 735.853C242.184 735.853 241.485 735.672 240.863 735.31C240.245 734.943 239.755 734.404 239.392 733.692C239.035 732.977 238.856 732.097 238.856 731.053C238.856 730.009 239.032 729.114 239.386 728.368C239.744 727.622 240.234 727.051 240.856 726.655C241.478 726.254 242.184 726.054 242.972 726.054C243.581 726.054 244.074 726.156 244.449 726.361C244.824 726.561 245.116 726.795 245.324 727.064C245.537 727.332 245.701 727.569 245.816 727.773H245.957V726.182H247.83V736.217C247.83 737.061 247.634 737.754 247.242 738.295C246.85 738.836 246.319 739.237 245.65 739.496C244.986 739.756 244.236 739.886 243.4 739.886ZM243.381 734.268C243.931 734.268 244.395 734.14 244.775 733.884C245.158 733.624 245.448 733.254 245.644 732.772C245.844 732.286 245.944 731.705 245.944 731.027C245.944 730.366 245.846 729.785 245.65 729.282C245.454 728.779 245.167 728.387 244.787 728.106C244.408 727.82 243.939 727.678 243.381 727.678C242.806 727.678 242.326 727.827 241.943 728.125C241.559 728.419 241.27 728.82 241.074 729.327C240.882 729.834 240.786 730.401 240.786 731.027C240.786 731.67 240.884 732.235 241.08 732.721C241.276 733.207 241.566 733.586 241.949 733.859C242.337 734.131 242.814 734.268 243.381 734.268ZM253.25 736.217C252.628 736.217 252.066 736.102 251.563 735.872C251.06 735.638 250.662 735.299 250.368 734.856C250.078 734.413 249.933 733.869 249.933 733.226C249.933 732.672 250.04 732.216 250.253 731.858C250.466 731.5 250.753 731.217 251.116 731.008C251.478 730.799 251.883 730.641 252.33 730.535C252.777 730.428 253.233 730.347 253.698 730.292C254.286 730.224 254.763 730.168 255.13 730.126C255.496 730.079 255.763 730.004 255.929 729.902C256.095 729.8 256.178 729.634 256.178 729.403V729.359C256.178 728.8 256.02 728.368 255.705 728.061C255.394 727.754 254.929 727.601 254.312 727.601C253.668 727.601 253.161 727.744 252.79 728.029C252.424 728.31 252.17 728.624 252.03 728.969L250.233 728.56C250.446 727.963 250.758 727.482 251.167 727.115C251.58 726.744 252.055 726.476 252.592 726.31C253.129 726.139 253.694 726.054 254.286 726.054C254.678 726.054 255.093 726.101 255.532 726.195C255.976 726.284 256.389 726.45 256.772 726.693C257.16 726.936 257.478 727.283 257.725 727.735C257.972 728.183 258.096 728.764 258.096 729.48V736H256.229V734.658H256.152C256.029 734.905 255.843 735.148 255.596 735.386C255.349 735.625 255.032 735.823 254.644 735.981C254.256 736.138 253.792 736.217 253.25 736.217ZM253.666 734.683C254.194 734.683 254.646 734.579 255.021 734.37C255.4 734.161 255.688 733.888 255.884 733.552C256.084 733.211 256.184 732.847 256.184 732.459V731.193C256.116 731.261 255.984 731.325 255.788 731.385C255.596 731.44 255.377 731.489 255.13 731.532C254.883 731.57 254.642 731.607 254.407 731.641C254.173 731.67 253.977 731.696 253.819 731.717C253.449 731.764 253.11 731.843 252.803 731.954C252.5 732.065 252.258 732.224 252.074 732.433C251.895 732.638 251.806 732.911 251.806 733.251C251.806 733.724 251.981 734.082 252.33 734.325C252.679 734.564 253.125 734.683 253.666 734.683ZM262.552 730.17V736H260.641V726.182H262.476V727.78H262.597C262.823 727.26 263.177 726.842 263.658 726.527C264.144 726.212 264.756 726.054 265.493 726.054C266.162 726.054 266.748 726.195 267.251 726.476C267.753 726.753 268.143 727.166 268.42 727.716C268.697 728.266 268.836 728.945 268.836 729.755V736H266.925V729.985C266.925 729.273 266.739 728.717 266.369 728.317C265.998 727.912 265.489 727.71 264.841 727.71C264.398 727.71 264.003 727.805 263.658 727.997C263.317 728.189 263.047 728.47 262.847 728.841C262.65 729.207 262.552 729.651 262.552 730.17ZM271.399 736V726.182H273.31V736H271.399ZM272.364 724.667C272.032 724.667 271.746 724.556 271.508 724.335C271.273 724.109 271.156 723.84 271.156 723.529C271.156 723.214 271.273 722.945 271.508 722.724C271.746 722.498 272.032 722.385 272.364 722.385C272.697 722.385 272.98 722.498 273.214 722.724C273.453 722.945 273.572 723.214 273.572 723.529C273.572 723.84 273.453 724.109 273.214 724.335C272.98 724.556 272.697 724.667 272.364 724.667Z" fill="white"/>
</g>
<defs>
<linearGradient id="paint0_linear_1_3" x1="-31.5281" y1="-39" x2="1532.01" y2="438.419" gradientUnits="userSpaceOnUse">
<stop stop-color="#001422"/>
<stop offset="1" stop-color="#000E15"/>
</linearGradient>
<linearGradient id="paint1_linear_1_3" x1="219" y1="241.881" x2="782.055" y2="455.853" gradientUnits="userSpaceOnUse">
<stop stop-color="#01CBE7"/>
<stop offset="1" stop-color="#01D2E4" stop-opacity="0"/>
</linearGradient>
<linearGradient id="paint2_linear_1_3" x1="826" y1="591.881" x2="225.913" y2="811.132" gradientUnits="userSpaceOnUse">
<stop stop-color="#01CBE7"/>
<stop offset="1" stop-color="#01D2E4" stop-opacity="0"/>
</linearGradient>
<clipPath id="clip0_1_3">
<rect width="1062" height="1080" fill="white"/>
</clipPath>
</defs>
</svg>
