<svg width="269" height="27" viewBox="0 0 269 27" fill="none" xmlns="http://www.w3.org/2000/svg">
<path d="M0 26.1536V0.352746H9.67532C11.6574 0.352746 13.3204 0.697093 14.6642 1.38579C16.0163 2.07448 17.0368 3.04033 17.7255 4.28334C18.4226 5.51795 18.7711 6.95833 18.7711 8.60448C18.7711 10.259 18.4184 11.6952 17.7129 12.913C17.0158 14.1224 15.987 15.0589 14.6264 15.7224C13.2658 16.3775 11.5944 16.705 9.61233 16.705H2.72118V12.8248H8.98242C10.1414 12.8248 11.0905 12.6653 11.8296 12.3461C12.5687 12.0186 13.1146 11.544 13.4673 10.9225C13.8285 10.2926 14.0091 9.51994 14.0091 8.60448C14.0091 7.68902 13.8285 6.90794 13.4673 6.26124C13.1062 5.60614 12.5561 5.11062 11.817 4.77467C11.0779 4.43032 10.1246 4.25815 8.95723 4.25815H4.67388V26.1536H0ZM13.3288 14.4626L19.716 26.1536H14.5004L8.22654 14.4626H13.3288Z" fill="white"/>
<path d="M55.9349 0.352746H60.6088V17.209C60.6088 19.0567 60.1721 20.6818 59.2986 22.0844C58.4335 23.487 57.2157 24.583 55.6451 25.3725C54.0746 26.1536 52.2395 26.5441 50.1398 26.5441C48.0317 26.5441 46.1924 26.1536 44.6218 25.3725C43.0513 24.583 41.8335 23.487 40.9684 22.0844C40.1033 20.6818 39.6708 19.0567 39.6708 17.209V0.352746H44.3447V16.8184C44.3447 17.8935 44.5798 18.8509 45.0502 19.6908C45.5289 20.5307 46.2008 21.19 47.0659 21.6687C47.9309 22.139 48.9556 22.3742 50.1398 22.3742C51.324 22.3742 52.3487 22.139 53.2137 21.6687C54.0872 21.19 54.7591 20.5307 55.2294 19.6908C55.6997 18.8509 55.9349 17.8935 55.9349 16.8184V0.352746Z" fill="white"/>
<path d="M86.6291 0.352746V26.1536H81.9552V0.352746H86.6291Z" fill="white"/>
<path d="M145.291 0.352746V26.1536H142.268L128.208 5.8959H127.956V26.1536H124.832V0.352746H127.855L141.965 20.6608H142.217V0.352746H145.291Z" fill="white"/>
<path d="M168.729 26.1536V0.352746H184.301V3.12432H171.854V11.8422H183.494V14.6138H171.854V23.382H184.502V26.1536H168.729Z" fill="white"/>
<path d="M205.932 3.12432V0.352746H225.283V3.12432H217.169V26.1536H214.045V3.12432H205.932Z" fill="white"/>
<path d="M269 13.2532C269 15.9744 268.509 18.326 267.526 20.3081C266.543 22.2902 265.195 23.8188 263.482 24.8938C261.769 25.9688 259.812 26.5063 257.611 26.5063C255.411 26.5063 253.454 25.9688 251.741 24.8938C250.027 23.8188 248.679 22.2902 247.697 20.3081C246.714 18.326 246.223 15.9744 246.223 13.2532C246.223 10.532 246.714 8.18035 247.697 6.19825C248.679 4.21615 250.027 2.68759 251.741 1.61255C253.454 0.537518 255.411 0 257.611 0C259.812 0 261.769 0.537518 263.482 1.61255C265.195 2.68759 266.543 4.21615 267.526 6.19825C268.509 8.18035 269 10.532 269 13.2532ZM265.976 13.2532C265.976 11.0191 265.603 9.1336 264.855 7.59664C264.116 6.05967 263.113 4.89645 261.844 4.10697C260.584 3.31749 259.174 2.92275 257.611 2.92275C256.049 2.92275 254.634 3.31749 253.366 4.10697C252.106 4.89645 251.102 6.05967 250.355 7.59664C249.616 9.1336 249.246 11.0191 249.246 13.2532C249.246 15.4872 249.616 17.3727 250.355 18.9097C251.102 20.4467 252.106 21.6099 253.366 22.3994C254.634 23.1888 256.049 23.5836 257.611 23.5836C259.174 23.5836 260.584 23.1888 261.844 22.3994C263.113 21.6099 264.116 20.4467 264.855 18.9097C265.603 17.3727 265.976 15.4872 265.976 13.2532Z" fill="white"/>
</svg>
