<svg width="154" height="16" viewBox="0 0 154 16" fill="none" xmlns="http://www.w3.org/2000/svg">
<path d="M0 14.9443V0.201561H5.52853C6.66111 0.201561 7.61133 0.398323 8.37918 0.791847C9.15183 1.18537 9.73492 1.73726 10.1284 2.44753C10.5268 3.15299 10.7259 3.97603 10.7259 4.91665C10.7259 5.86207 10.5244 6.68271 10.1212 7.37858C9.72292 8.06964 9.13504 8.60474 8.35759 8.98387C7.58014 9.35819 6.62512 9.54536 5.49254 9.54536H1.5549V7.32819H5.13261C5.79488 7.32819 6.33718 7.237 6.7595 7.05464C7.18181 6.86748 7.49375 6.59633 7.69531 6.2412C7.90168 5.88127 8.00486 5.43975 8.00486 4.91665C8.00486 4.39355 7.90168 3.94724 7.69531 3.57771C7.48896 3.20338 7.17462 2.92024 6.7523 2.72827C6.32998 2.53151 5.78528 2.43313 5.11821 2.43313H2.67068V14.9443H0ZM7.61613 8.26401L11.2658 14.9443H8.2856L4.70069 8.26401H7.61613Z" fill="white"/>
<path d="M31.9615 0.201561H34.6322V9.8333C34.6322 10.8891 34.3827 11.8177 33.8836 12.6192C33.3893 13.4206 32.6934 14.0469 31.796 14.498C30.8985 14.9443 29.8499 15.1675 28.6502 15.1675C27.4456 15.1675 26.3946 14.9443 25.4972 14.498C24.5998 14.0469 23.9039 13.4206 23.4096 12.6192C22.9153 11.8177 22.6681 10.8891 22.6681 9.8333V0.201561H25.3388V9.61015C25.3388 10.2244 25.4732 10.7715 25.7419 11.2514C26.0155 11.7313 26.3994 12.1081 26.8937 12.3816C27.388 12.6504 27.9735 12.7847 28.6502 12.7847C29.3268 12.7847 29.9123 12.6504 30.4066 12.3816C30.9057 12.1081 31.2897 11.7313 31.5584 11.2514C31.8272 10.7715 31.9615 10.2244 31.9615 9.61015V0.201561Z" fill="white"/>
<path d="M49.5004 0.201561V14.9443H46.8297V0.201561H49.5004Z" fill="white"/>
<path d="M83.0202 0.201561V14.9443H81.2926L73.2589 3.36895H73.1149V14.9443H71.3297V0.201561H73.0573L81.1198 11.8057H81.2638V0.201561H83.0202Z" fill="white"/>
<path d="M96.4129 14.9443V0.201561H105.31V1.78526H98.1982V6.76669H104.85V8.35039H98.1982V13.3606H105.426V14.9443H96.4129Z" fill="white"/>
<path d="M117.671 1.78526V0.201561H128.728V1.78526H124.092V14.9443H122.307V1.78526H117.671Z" fill="white"/>
<path d="M153.708 7.57294C153.708 9.12784 153.427 10.4716 152.866 11.6042C152.304 12.7367 151.534 13.6102 150.555 14.2245C149.576 14.8387 148.458 15.1459 147.201 15.1459C145.943 15.1459 144.825 14.8387 143.846 14.2245C142.867 13.6102 142.097 12.7367 141.535 11.6042C140.974 10.4716 140.693 9.12784 140.693 7.57294C140.693 6.01804 140.974 4.6743 141.535 3.54172C142.097 2.40914 142.867 1.5357 143.846 0.921422C144.825 0.307141 145.943 0 147.201 0C148.458 0 149.576 0.307141 150.555 0.921422C151.534 1.5357 152.304 2.40914 152.866 3.54172C153.427 4.6743 153.708 6.01804 153.708 7.57294ZM151.981 7.57294C151.981 6.29639 151.767 5.21899 151.34 4.34076C150.918 3.46253 150.344 2.79786 149.619 2.34675C148.9 1.89563 148.093 1.67008 147.201 1.67008C146.308 1.67008 145.499 1.89563 144.775 2.34675C144.055 2.79786 143.481 3.46253 143.054 4.34076C142.632 5.21899 142.421 6.29639 142.421 7.57294C142.421 8.84949 142.632 9.92688 143.054 10.8051C143.481 11.6833 144.055 12.348 144.775 12.7991C145.499 13.2502 146.308 13.4758 147.201 13.4758C148.093 13.4758 148.9 13.2502 149.619 12.7991C150.344 12.348 150.918 11.6833 151.34 10.8051C151.767 9.92688 151.981 8.84949 151.981 7.57294Z" fill="white"/>
</svg>
