<svg width="74" height="24" viewBox="0 0 74 24" fill="none" xmlns="http://www.w3.org/2000/svg">
<g clip-path="url(#clip0_108_2)">
<path d="M0.127098 23.5052C-0.123825 23.5052 -0.249161 23.3724 -0.249161 23.1068V8.53856C-0.249161 7.51423 -0.0465599 6.60371 0.358641 5.80701C0.783222 5.01031 1.36208 4.39381 2.09522 3.95753C2.84774 3.50227 3.70646 3.27464 4.67114 3.27464C6.15679 3.27464 7.36283 3.76783 8.28901 4.75423C9.21518 5.72165 9.67827 6.98309 9.67827 8.53856V10.8148C9.67827 11.8771 9.44673 12.8066 8.98364 13.6033C8.52055 14.381 7.89337 14.9786 7.10235 15.3959L10.1992 23.0784L10.2282 23.1922C10.2282 23.287 10.1897 23.3629 10.1124 23.4198C10.0352 23.4767 9.93876 23.5052 9.82299 23.5052H7.85487C7.6427 23.5052 7.50755 23.3913 7.44967 23.1637L4.70008 15.9934H2.3557V23.1068C2.3557 23.3724 2.23037 23.5052 1.97945 23.5052H0.127098ZM4.58431 13.6318C5.33683 13.6318 5.93507 13.3851 6.37878 12.892C6.82248 12.3798 7.04446 11.7064 7.04446 10.8718V8.42475C7.04446 7.60907 6.82248 6.95463 6.37878 6.46145C5.95419 5.94928 5.39471 5.6932 4.70008 5.6932C4.00545 5.6932 3.43616 5.94928 2.99245 6.46145C2.56787 6.95463 2.3557 7.60907 2.3557 8.42475V13.6318H4.58431ZM14.7551 3.58763C15.0058 3.58763 15.1314 3.71092 15.1314 3.95753V18.6965C15.1314 19.5122 15.3435 20.1666 15.7681 20.6598C16.1925 21.153 16.7617 21.3996 17.4758 21.3996C18.1895 21.3996 18.7588 21.153 19.1834 20.6598C19.6077 20.1666 19.8201 19.5122 19.8201 18.6965V3.95753C19.8201 3.84372 19.8586 3.75835 19.9359 3.70145C20.0129 3.62556 20.1096 3.58763 20.2253 3.58763H22.0487C22.3188 3.58763 22.4539 3.71092 22.4539 3.95753V18.5542C22.4539 20.1097 22.0004 21.3806 21.0936 22.367C20.1866 23.3344 18.9808 23.8181 17.4758 23.8181C15.9898 23.8181 14.7936 23.3344 13.8868 22.367C12.9798 21.3806 12.5265 20.1097 12.5265 18.5542V3.95753C12.5265 3.71092 12.6518 3.58763 12.9028 3.58763H14.7551ZM25.7582 3.95753C25.7582 3.71092 25.8934 3.58763 26.1634 3.58763H27.9868C28.2378 3.58763 28.3631 3.71092 28.3631 3.95753V23.1068C28.3631 23.3724 28.2378 23.5052 27.9868 23.5052H26.1634C25.8934 23.5052 25.7582 23.3724 25.7582 23.1068V3.95753Z" fill="url(#paint0_linear_108_2)"/>
<path d="M32.2686 23.5052C32.095 23.5052 32.0081 23.4293 32.0081 23.2775V8.39629C32.0081 6.89772 32.4327 5.68372 33.2816 4.75422C34.1499 3.80578 35.2885 3.33154 36.6969 3.33154C38.0862 3.33154 39.2054 3.80578 40.0543 4.75422C40.9226 5.68372 41.3567 6.89772 41.3567 8.39629V23.2775C41.3567 23.4293 41.2797 23.5052 41.1252 23.5052H40.2569C40.0832 23.5052 39.9964 23.4293 39.9964 23.2775V8.39629C39.9964 7.23916 39.6974 6.31917 39.0992 5.63629C38.5012 4.93442 37.7003 4.5835 36.6969 4.5835C35.6937 4.5835 34.8833 4.93442 34.2657 5.63629C33.6677 6.31917 33.3685 7.23916 33.3685 8.39629V23.2775C33.3685 23.4293 33.2914 23.5052 33.1369 23.5052H32.2686ZM49.4356 23.5621C48.5285 23.5621 47.7181 23.3534 47.0044 22.9361C46.3097 22.5188 45.7598 21.9402 45.3546 21.2004C44.9685 20.4606 44.7758 19.6355 44.7758 18.7249V8.36783C44.7758 7.45732 44.9685 6.63216 45.3546 5.89237C45.7598 5.15257 46.3097 4.57403 47.0044 4.1567C47.7181 3.73937 48.5285 3.53072 49.4356 3.53072H52.3009C52.4552 3.53072 52.5325 3.6066 52.5325 3.75835V4.52659C52.5325 4.69732 52.4552 4.78268 52.3009 4.78268H49.4356C48.4515 4.78268 47.6507 5.12412 47.0333 5.80701C46.4351 6.47092 46.1361 7.32452 46.1361 8.36783V12.7781H51.6352C51.8089 12.7781 51.8957 12.854 51.8957 13.0058V13.774C51.8957 13.9258 51.8089 14.0016 51.6352 14.0016H46.1361V18.7249C46.1361 19.7683 46.4351 20.6313 47.0333 21.3142C47.6507 21.9781 48.4515 22.3101 49.4356 22.3101H52.3009C52.4552 22.3101 52.5325 22.3955 52.5325 22.5662V23.3344C52.5325 23.4862 52.4552 23.5621 52.3009 23.5621H49.4356ZM63.0778 3.58763C63.232 3.58763 63.3093 3.66351 63.3093 3.81525V4.5835C63.3093 4.75422 63.232 4.83958 63.0778 4.83958H59.4599V23.2775C59.4599 23.4293 59.3826 23.5052 59.2284 23.5052H58.3601C58.1864 23.5052 58.0996 23.4293 58.0996 23.2775V4.83958H54.4817C54.3274 4.83958 54.2502 4.75422 54.2502 4.5835V3.81525C54.2502 3.66351 54.3274 3.58763 54.4817 3.58763H63.0778ZM69.564 23.7328C68.1169 23.7328 66.9493 23.2585 66.0619 22.3101C65.1742 21.3427 64.7305 20.0717 64.7305 18.4973V8.62391C64.7305 7.03051 65.1742 5.75958 66.0619 4.81113C66.9493 3.84371 68.1169 3.36 69.564 3.36C71.0112 3.36 72.1784 3.82473 73.0661 4.75422C73.9535 5.68372 74.3975 6.90722 74.3975 8.42474V18.668C74.3975 20.1856 73.9535 21.4091 73.0661 22.3386C72.1784 23.268 71.0112 23.7328 69.564 23.7328ZM69.564 22.5093C70.606 22.5093 71.4453 22.1584 72.082 21.4565C72.7379 20.7546 73.0661 19.8252 73.0661 18.668V8.42474C73.0661 7.26762 72.7379 6.33815 72.082 5.63629C71.4453 4.93442 70.606 4.5835 69.564 4.5835C68.5221 4.5835 67.6827 4.94392 67.046 5.66474C66.4092 6.38556 66.0909 7.37196 66.0909 8.62391V18.4973C66.0909 19.7303 66.4092 20.7072 67.046 21.428C67.6827 22.1489 68.5221 22.5093 69.564 22.5093Z" fill="white"/>
</g>
<defs>
<linearGradient id="paint0_linear_108_2" x1="-1.81208" y1="12.1237" x2="31.1577" y2="12.1237" gradientUnits="userSpaceOnUse">
<stop stop-color="white"/>
<stop offset="1" stop-color="white" stop-opacity="0.6"/>
</linearGradient>
<clipPath id="clip0_108_2">
<rect width="74" height="24" fill="white"/>
</clipPath>
</defs>
</svg>
