<svg width="150" height="24" viewBox="0 0 150 24" fill="none" xmlns="http://www.w3.org/2000/svg">
<g clip-path="url(#clip0_108_2)">
<path fill-rule="evenodd" clip-rule="evenodd" d="M129.129 1.73196L116.779 22.5813L119.3 24L131.651 3.15058L129.129 1.73196ZM145.883 13.0557L136.723 21.9829L138.782 23.9892L150 13.0557L138.782 2.12219L136.723 4.12842L145.883 13.0557Z" fill="url(#paint0_linear_108_2)"/>
<path d="M30.1271 23.5052C29.8762 23.5052 29.7508 23.3724 29.7508 23.1068V8.53856C29.7508 7.51423 29.9534 6.60371 30.3586 5.80701C30.7832 5.01031 31.3621 4.39381 32.0952 3.95753C32.8477 3.50227 33.7065 3.27464 34.6711 3.27464C36.1568 3.27464 37.3628 3.76783 38.289 4.75423C39.2152 5.72165 39.6783 6.98309 39.6783 8.53856V10.8148C39.6783 11.8771 39.4467 12.8066 38.9836 13.6033C38.5206 14.381 37.8934 14.9786 37.1023 15.3959L40.1992 23.0784L40.2282 23.1922C40.2282 23.287 40.1897 23.3629 40.1124 23.4198C40.0352 23.4767 39.9388 23.5052 39.823 23.5052H37.8549C37.6427 23.5052 37.5076 23.3913 37.4497 23.1637L34.7001 15.9934H32.3557V23.1068C32.3557 23.3724 32.2304 23.5052 31.9794 23.5052H30.1271ZM34.5843 13.6318C35.3368 13.6318 35.9351 13.3851 36.3788 12.892C36.8225 12.3798 37.0445 11.7064 37.0445 10.8718V8.42475C37.0445 7.60907 36.8225 6.95463 36.3788 6.46145C35.9542 5.94928 35.3947 5.6932 34.7001 5.6932C34.0055 5.6932 33.4362 5.94928 32.9924 6.46145C32.5679 6.95463 32.3557 7.60907 32.3557 8.42475V13.6318H34.5843ZM44.7551 3.58763C45.0058 3.58763 45.1314 3.71092 45.1314 3.95753V18.6965C45.1314 19.5122 45.3435 20.1666 45.7681 20.6598C46.1925 21.153 46.7617 21.3996 47.4758 21.3996C48.1895 21.3996 48.7588 21.153 49.1834 20.6598C49.6077 20.1666 49.8201 19.5122 49.8201 18.6965V3.95753C49.8201 3.84372 49.8586 3.75835 49.9359 3.70145C50.0129 3.62556 50.1096 3.58763 50.2253 3.58763H52.0487C52.3188 3.58763 52.4539 3.71092 52.4539 3.95753V18.5542C52.4539 20.1097 52.0004 21.3806 51.0936 22.367C50.1866 23.3344 48.9808 23.8181 47.4758 23.8181C45.9898 23.8181 44.7936 23.3344 43.8868 22.367C42.9798 21.3806 42.5265 20.1097 42.5265 18.5542V3.95753C42.5265 3.71092 42.6518 3.58763 42.9028 3.58763H44.7551ZM55.7582 3.95753C55.7582 3.71092 55.8934 3.58763 56.1634 3.58763H57.9868C58.2378 3.58763 58.3631 3.71092 58.3631 3.95753V23.1068C58.3631 23.3724 58.2378 23.5052 57.9868 23.5052H56.1634C55.8934 23.5052 55.7582 23.3724 55.7582 23.1068V3.95753Z" fill="url(#paint1_linear_108_2)"/>
<path d="M62.2686 23.5052C62.095 23.5052 62.0081 23.4293 62.0081 23.2775V8.39629C62.0081 6.89772 62.4327 5.68372 63.2816 4.75422C64.1499 3.80578 65.2885 3.33154 66.6969 3.33154C68.0862 3.33154 69.2054 3.80578 70.0543 4.75422C70.9226 5.68372 71.3567 6.89772 71.3567 8.39629V23.2775C71.3567 23.4293 71.2797 23.5052 71.1252 23.5052H70.2569C70.0832 23.5052 69.9964 23.4293 69.9964 23.2775V8.39629C69.9964 7.23916 69.6974 6.31917 69.0992 5.63629C68.5012 4.93442 67.7003 4.5835 66.6969 4.5835C65.6937 4.5835 64.8833 4.93442 64.2657 5.63629C63.6677 6.31917 63.3685 7.23916 63.3685 8.39629V23.2775C63.3685 23.4293 63.2914 23.5052 63.1369 23.5052H62.2686ZM79.4356 23.5621C78.5285 23.5621 77.7181 23.3534 77.0044 22.9361C76.3097 22.5188 75.7598 21.9402 75.3546 21.2004C74.9685 20.4606 74.7758 19.6355 74.7758 18.7249V8.36783C74.7758 7.45732 74.9685 6.63216 75.3546 5.89237C75.7598 5.15257 76.3097 4.57403 77.0044 4.1567C77.7181 3.73937 78.5285 3.53072 79.4356 3.53072H82.3009C82.4552 3.53072 82.5325 3.6066 82.5325 3.75835V4.52659C82.5325 4.69732 82.4552 4.78268 82.3009 4.78268H79.4356C78.4515 4.78268 77.6507 5.12412 77.0333 5.80701C76.4351 6.47092 76.1361 7.32452 76.1361 8.36783V12.7781H81.6352C81.8089 12.7781 81.8957 12.854 81.8957 13.0058V13.774C81.8957 13.9258 81.8089 14.0016 81.6352 14.0016H76.1361V18.7249C76.1361 19.7683 76.4351 20.6313 77.0333 21.3142C77.6507 21.9781 78.4515 22.3101 79.4356 22.3101H82.3009C82.4552 22.3101 82.5325 22.3955 82.5325 22.5662V23.3344C82.5325 23.4862 82.4552 23.5621 82.3009 23.5621H79.4356ZM93.0778 3.58763C93.232 3.58763 93.3093 3.66351 93.3093 3.81525V4.5835C93.3093 4.75422 93.232 4.83958 93.0778 4.83958H89.4599V23.2775C89.4599 23.4293 89.3826 23.5052 89.2284 23.5052H88.3601C88.1864 23.5052 88.0996 23.4293 88.0996 23.2775V4.83958H84.4817C84.3274 4.83958 84.2502 4.75422 84.2502 4.5835V3.81525C84.2502 3.66351 84.3274 3.58763 84.4817 3.58763H93.0778ZM99.564 23.7328C98.1169 23.7328 96.9493 23.2585 96.0619 22.3101C95.1742 21.3427 94.7305 20.0717 94.7305 18.4973V8.62391C94.7305 7.03051 95.1742 5.75958 96.0619 4.81113C96.9493 3.84371 98.1169 3.36 99.564 3.36C101.011 3.36 102.178 3.82473 103.066 4.75422C103.954 5.68372 104.397 6.90722 104.397 8.42474V18.668C104.397 20.1856 103.954 21.4091 103.066 22.3386C102.178 23.268 101.011 23.7328 99.564 23.7328ZM99.564 22.5093C100.606 22.5093 101.445 22.1584 102.082 21.4565C102.738 20.7546 103.066 19.8252 103.066 18.668V8.42474C103.066 7.26762 102.738 6.33815 102.082 5.63629C101.445 4.93442 100.606 4.5835 99.564 4.5835C98.5221 4.5835 97.6827 4.94392 97.046 5.66474C96.4092 6.38556 96.0909 7.37196 96.0909 8.62391V18.4973C96.0909 19.7303 96.4092 20.7072 97.046 21.428C97.6827 22.1489 98.5221 22.5093 99.564 22.5093Z" fill="white"/>
<path fill-rule="evenodd" clip-rule="evenodd" d="M4.05823 13.2371L13.0872 4.44916L11.0582 2.47423L0 13.2371L11.0582 24L13.0872 22.0251L4.05823 13.2371Z" fill="url(#paint2_linear_108_2)"/>
</g>
<defs>
<linearGradient id="paint0_linear_108_2" x1="26.0922" y1="-6.59001" x2="10.8392" y2="56.7212" gradientUnits="userSpaceOnUse">
<stop stop-color="white"/>
<stop offset="1" stop-color="#C6C7C8"/>
</linearGradient>
<linearGradient id="paint1_linear_108_2" x1="28.1879" y1="12.1237" x2="61.1577" y2="12.1237" gradientUnits="userSpaceOnUse">
<stop stop-color="white"/>
<stop offset="1" stop-color="white" stop-opacity="0.5"/>
</linearGradient>
<linearGradient id="paint2_linear_108_2" x1="33.7178" y1="-6.10228" x2="18.7211" y2="56.2306" gradientUnits="userSpaceOnUse">
<stop stop-color="#8A8A8A"/>
<stop offset="1" stop-color="white"/>
</linearGradient>
<clipPath id="clip0_108_2">
<rect width="150" height="24" fill="white"/>
</clipPath>
</defs>
</svg>
