<svg width="158" height="20" viewBox="0 0 158 20" fill="none" xmlns="http://www.w3.org/2000/svg">
<path d="M4.016 16.336H9.536V19H0.656V2.248H4.016V16.336ZM24.2236 5.704V19H20.8396V17.32C20.4076 17.896 19.8396 18.352 19.1356 18.688C18.4476 19.008 17.6956 19.168 16.8796 19.168C15.8396 19.168 14.9196 18.952 14.1196 18.52C13.3196 18.072 12.6876 17.424 12.2236 16.576C11.7756 15.712 11.5516 14.688 11.5516 13.504V5.704H14.9116V13.024C14.9116 14.08 15.1756 14.896 15.7036 15.472C16.2316 16.032 16.9516 16.312 17.8636 16.312C18.7916 16.312 19.5196 16.032 20.0476 15.472C20.5756 14.896 20.8396 14.08 20.8396 13.024V5.704H24.2236ZM26.6748 12.352C26.6748 10.976 26.9548 9.776 27.5148 8.752C28.0748 7.712 28.8508 6.912 29.8428 6.352C30.8348 5.776 31.9708 5.488 33.2508 5.488C34.8988 5.488 36.2588 5.904 37.3308 6.736C38.4188 7.552 39.1468 8.704 39.5148 10.192H35.8908C35.6988 9.616 35.3708 9.168 34.9068 8.848C34.4588 8.512 33.8988 8.344 33.2268 8.344C32.2668 8.344 31.5068 8.696 30.9468 9.4C30.3868 10.088 30.1068 11.072 30.1068 12.352C30.1068 13.616 30.3868 14.6 30.9468 15.304C31.5068 15.992 32.2668 16.336 33.2268 16.336C34.5868 16.336 35.4748 15.728 35.8908 14.512H39.5148C39.1468 15.952 38.4188 17.096 37.3308 17.944C36.2428 18.792 34.8828 19.216 33.2508 19.216C31.9708 19.216 30.8348 18.936 29.8428 18.376C28.8508 17.8 28.0748 17 27.5148 15.976C26.9548 14.936 26.6748 13.728 26.6748 12.352ZM43.6803 4.12C43.0883 4.12 42.5923 3.936 42.1923 3.568C41.8083 3.184 41.6163 2.712 41.6163 2.152C41.6163 1.592 41.8083 1.128 42.1923 0.759999C42.5923 0.375999 43.0883 0.183999 43.6803 0.183999C44.2723 0.183999 44.7603 0.375999 45.1443 0.759999C45.5443 1.128 45.7443 1.592 45.7443 2.152C45.7443 2.712 45.5443 3.184 45.1443 3.568C44.7603 3.936 44.2723 4.12 43.6803 4.12ZM45.3363 5.704V19H41.9763V5.704H45.3363ZM47.792 12.304C47.792 10.96 48.056 9.768 48.584 8.728C49.128 7.688 49.856 6.888 50.768 6.328C51.696 5.768 52.728 5.488 53.864 5.488C54.856 5.488 55.72 5.688 56.456 6.088C57.208 6.488 57.808 6.992 58.256 7.6V5.704H61.64V19H58.256V17.056C57.824 17.68 57.224 18.2 56.456 18.616C55.704 19.016 54.832 19.216 53.84 19.216C52.72 19.216 51.696 18.928 50.768 18.352C49.856 17.776 49.128 16.968 48.584 15.928C48.056 14.872 47.792 13.664 47.792 12.304ZM58.256 12.352C58.256 11.536 58.096 10.84 57.776 10.264C57.456 9.672 57.024 9.224 56.48 8.92C55.936 8.6 55.352 8.44 54.728 8.44C54.104 8.44 53.528 8.592 53 8.896C52.472 9.2 52.04 9.648 51.704 10.24C51.384 10.816 51.224 11.504 51.224 12.304C51.224 13.104 51.384 13.808 51.704 14.416C52.04 15.008 52.472 15.464 53 15.784C53.544 16.104 54.12 16.264 54.728 16.264C55.352 16.264 55.936 16.112 56.48 15.808C57.024 15.488 57.456 15.04 57.776 14.464C58.096 13.872 58.256 13.168 58.256 12.352ZM72.2896 5.512C73.8736 5.512 75.1536 6.016 76.1296 7.024C77.1056 8.016 77.5936 9.408 77.5936 11.2V19H74.2336V11.656C74.2336 10.6 73.9696 9.792 73.4416 9.232C72.9136 8.656 72.1936 8.368 71.2816 8.368C70.3536 8.368 69.6176 8.656 69.0736 9.232C68.5456 9.792 68.2816 10.6 68.2816 11.656V19H64.9216V5.704H68.2816V7.36C68.7296 6.784 69.2976 6.336 69.9856 6.016C70.6896 5.68 71.4576 5.512 72.2896 5.512ZM86.6928 19.216C85.4128 19.216 84.2608 18.936 83.2368 18.376C82.2128 17.8 81.4048 16.992 80.8128 15.952C80.2368 14.912 79.9488 13.712 79.9488 12.352C79.9488 10.992 80.2448 9.792 80.8368 8.752C81.4448 7.712 82.2688 6.912 83.3088 6.352C84.3488 5.776 85.5088 5.488 86.7888 5.488C88.0688 5.488 89.2288 5.776 90.2688 6.352C91.3088 6.912 92.1248 7.712 92.7168 8.752C93.3248 9.792 93.6288 10.992 93.6288 12.352C93.6288 13.712 93.3168 14.912 92.6928 15.952C92.0848 16.992 91.2528 17.8 90.1968 18.376C89.1568 18.936 87.9888 19.216 86.6928 19.216ZM86.6928 16.288C87.3008 16.288 87.8688 16.144 88.3968 15.856C88.9408 15.552 89.3728 15.104 89.6928 14.512C90.0128 13.92 90.1728 13.2 90.1728 12.352C90.1728 11.088 89.8368 10.12 89.1648 9.448C88.5088 8.76 87.7008 8.416 86.7408 8.416C85.7808 8.416 84.9728 8.76 84.3168 9.448C83.6768 10.12 83.3568 11.088 83.3568 12.352C83.3568 13.616 83.6688 14.592 84.2928 15.28C84.9328 15.952 85.7328 16.288 86.6928 16.288ZM107.596 19.168C106.428 19.168 105.372 18.968 104.428 18.568C103.5 18.168 102.764 17.592 102.22 16.84C101.676 16.088 101.396 15.2 101.38 14.176H104.98C105.028 14.864 105.268 15.408 105.7 15.808C106.148 16.208 106.756 16.408 107.524 16.408C108.308 16.408 108.924 16.224 109.372 15.856C109.82 15.472 110.044 14.976 110.044 14.368C110.044 13.872 109.892 13.464 109.588 13.144C109.284 12.824 108.9 12.576 108.436 12.4C107.988 12.208 107.364 12 106.564 11.776C105.476 11.456 104.588 11.144 103.9 10.84C103.228 10.52 102.644 10.048 102.148 9.424C101.668 8.784 101.428 7.936 101.428 6.88C101.428 5.888 101.676 5.024 102.172 4.288C102.668 3.552 103.364 2.992 104.26 2.608C105.156 2.208 106.18 2.008 107.332 2.008C109.06 2.008 110.46 2.432 111.532 3.28C112.62 4.112 113.22 5.28 113.332 6.784H109.636C109.604 6.208 109.356 5.736 108.892 5.368C108.444 4.984 107.844 4.792 107.092 4.792C106.436 4.792 105.908 4.96 105.508 5.296C105.124 5.632 104.932 6.12 104.932 6.76C104.932 7.208 105.076 7.584 105.364 7.888C105.668 8.176 106.036 8.416 106.468 8.608C106.916 8.784 107.54 8.992 108.34 9.232C109.428 9.552 110.316 9.872 111.004 10.192C111.692 10.512 112.284 10.992 112.78 11.632C113.276 12.272 113.524 13.112 113.524 14.152C113.524 15.048 113.292 15.88 112.828 16.648C112.364 17.416 111.684 18.032 110.788 18.496C109.892 18.944 108.828 19.168 107.596 19.168ZM118.141 4.12C117.549 4.12 117.053 3.936 116.653 3.568C116.269 3.184 116.077 2.712 116.077 2.152C116.077 1.592 116.269 1.128 116.653 0.759999C117.053 0.375999 117.549 0.183999 118.141 0.183999C118.733 0.183999 119.221 0.375999 119.605 0.759999C120.005 1.128 120.205 1.592 120.205 2.152C120.205 2.712 120.005 3.184 119.605 3.568C119.221 3.936 118.733 4.12 118.141 4.12ZM119.797 5.704V19H116.437V5.704H119.797ZM126.477 1.24V19H123.117V1.24H126.477ZM135.341 15.904L138.701 5.704H142.277L137.357 19H133.277L128.381 5.704H131.981L135.341 15.904ZM143.3 12.304C143.3 10.96 143.564 9.768 144.092 8.728C144.636 7.688 145.364 6.888 146.276 6.328C147.204 5.768 148.236 5.488 149.372 5.488C150.364 5.488 151.228 5.688 151.964 6.088C152.716 6.488 153.316 6.992 153.764 7.6V5.704H157.148V19H153.764V17.056C153.332 17.68 152.732 18.2 151.964 18.616C151.212 19.016 150.34 19.216 149.348 19.216C148.228 19.216 147.204 18.928 146.276 18.352C145.364 17.776 144.636 16.968 144.092 15.928C143.564 14.872 143.3 13.664 143.3 12.304ZM153.764 12.352C153.764 11.536 153.604 10.84 153.284 10.264C152.964 9.672 152.532 9.224 151.988 8.92C151.444 8.6 150.86 8.44 150.236 8.44C149.612 8.44 149.036 8.592 148.508 8.896C147.98 9.2 147.548 9.648 147.212 10.24C146.892 10.816 146.732 11.504 146.732 12.304C146.732 13.104 146.892 13.808 147.212 14.416C147.548 15.008 147.98 15.464 148.508 15.784C149.052 16.104 149.628 16.264 150.236 16.264C150.86 16.264 151.444 16.112 151.988 15.808C152.532 15.488 152.964 15.04 153.284 14.464C153.604 13.872 153.764 13.168 153.764 12.352Z" fill="white"/>
</svg>
