<svg width="24" height="24" viewBox="0 0 24 24" fill="none" xmlns="http://www.w3.org/2000/svg">
<path d="M18.0499 7.16398C18.383 5.46878 18.1967 4.18222 17.4095 3.67096C17.1309 3.49825 16.8053 3.41726 16.4783 3.4394C14.5662 3.51199 11.4809 6.14476 8.96018 10.0264C5.97261 14.6269 4.91091 19.2374 6.59044 20.3281C7.38769 20.8459 8.6581 20.4788 10.0933 19.4561" stroke="black" stroke-width="1.5" stroke-linecap="round" stroke-linejoin="round"/>
<path d="M12.1924 8.38083C17.6703 8.66795 22.0225 10.5194 21.9177 12.5193C21.8724 13.384 21.0005 14.1369 19.5825 14.687" stroke="black" stroke-width="1.5" stroke-linecap="round" stroke-linejoin="round"/>
<path d="M10.1504 8.35217C10.3263 8.348 10.5007 8.34201 10.6796 8.34141C11.1736 8.33973 11.6786 8.35392 12.1921 8.38082" stroke="black" stroke-width="1.5" stroke-linecap="round" stroke-linejoin="round"/>
<path d="M6.86362 8.66443C4.05613 9.16102 2.15032 10.1921 2.08291 11.4797C2.03764 12.3427 2.82396 13.1796 4.17178 13.8741" stroke="black" stroke-width="1.5" stroke-linecap="round" stroke-linejoin="round"/>
<path d="M18.0499 7.16398C18.383 5.46878 18.1967 4.18222 17.4095 3.67096C17.1309 3.49825 16.8053 3.41726 16.4783 3.4394C14.5662 3.51199 11.4809 6.14476 8.96018 10.0264C5.97261 14.6269 4.91091 19.2374 6.59044 20.3281C7.38769 20.8459 8.6581 20.4788 10.0933 19.4561" stroke="black" stroke-width="1.5" stroke-linecap="round" stroke-linejoin="round"/>
<path d="M10.6454 4.1833C9.94854 3.48364 9.0198 3.06308 8.03426 3.0009C7.84553 3.01332 7.66123 3.06358 7.49232 3.1487C5.70798 4.05786 6.27801 8.75995 8.76833 13.6475C11.2587 18.535 14.7238 21.7595 16.5082 20.8503C18.2241 19.976 17.761 15.5945 15.5081 10.9132" stroke="black" stroke-width="1.5" stroke-linecap="round" stroke-linejoin="round"/>
<path d="M10.6454 4.1833C9.94854 3.48364 9.0198 3.06308 8.03426 3.0009C7.84553 3.01332 7.66123 3.06358 7.49232 3.1487C5.70798 4.05786 6.27801 8.75995 8.76833 13.6475C11.2587 18.535 14.7238 21.7595 16.5082 20.8503C18.2241 19.976 17.761 15.5945 15.5081 10.9132" stroke="black" stroke-width="1.5" stroke-linecap="round" stroke-linejoin="round"/>
<path d="M12.3148 12.1403C12.3146 12.2783 12.2026 12.3901 12.0646 12.3901C11.9265 12.39 11.8146 12.2781 11.8146 12.1401C11.8145 12.002 11.9263 11.89 12.0644 11.8898C12.1308 11.8898 12.1945 11.9161 12.2415 11.9631C12.2885 12.0101 12.3148 12.0738 12.3148 12.1403" stroke="black" stroke-width="1.5" stroke-linecap="round" stroke-linejoin="round"/>
</svg>
