<svg width="42" height="42" viewBox="0 0 42 42" fill="none" xmlns="http://www.w3.org/2000/svg">
<path d="M31.0834 12.94C31.6386 10.1146 31.3281 7.97038 30.016 7.11827C29.5518 6.83042 29.009 6.69544 28.4641 6.73235C25.2772 6.85333 20.1351 11.2413 15.9339 17.7107C10.9546 25.3781 9.18509 33.0624 11.9843 34.8802C13.3131 35.7431 15.4304 35.1314 17.8224 33.4268" stroke="#030E15" stroke-width="2" stroke-linecap="round" stroke-linejoin="round"/>
<path d="M21.3201 14.9681C30.4499 15.4466 37.7036 18.5323 37.5289 21.8654C37.4534 23.3067 36.0002 24.5616 33.6369 25.4784" stroke="#030E15" stroke-width="2" stroke-linecap="round" stroke-linejoin="round"/>
<path d="M17.9172 14.9203C18.2104 14.9133 18.501 14.9034 18.7993 14.9024C19.6225 14.8996 20.4642 14.9232 21.3201 14.968" stroke="#030E15" stroke-width="2" stroke-linecap="round" stroke-linejoin="round"/>
<path d="M12.439 15.4407C7.75981 16.2684 4.58345 17.9868 4.47111 20.1329C4.39566 21.5712 5.70619 22.9661 7.95256 24.1236" stroke="#030E15" stroke-width="2" stroke-linecap="round" stroke-linejoin="round"/>
<path d="M31.0834 12.94C31.6386 10.1146 31.3281 7.97038 30.016 7.11827C29.5518 6.83042 29.009 6.69544 28.4641 6.73235C25.2772 6.85333 20.1351 11.2413 15.9339 17.7107C10.9546 25.3781 9.18509 33.0624 11.9843 34.8802C13.3131 35.7431 15.4304 35.1314 17.8224 33.4268" stroke="#030E15" stroke-width="2" stroke-linecap="round" stroke-linejoin="round"/>
<path d="M18.742 7.97218C17.5806 6.80608 16.0327 6.10514 14.3901 6.00151C14.0756 6.02221 13.7684 6.10598 13.4869 6.24785C10.513 7.76311 11.463 15.5999 15.6136 23.7458C19.7641 31.8917 25.5394 37.2658 28.5133 35.7505C31.3732 34.2933 30.6013 26.9908 26.8464 19.1886" stroke="#030E15" stroke-width="2" stroke-linecap="round" stroke-linejoin="round"/>
<path d="M18.742 7.97218C17.5806 6.80608 16.0327 6.10514 14.3901 6.00151C14.0756 6.02221 13.7684 6.10598 13.4869 6.24785C10.513 7.76311 11.463 15.5999 15.6136 23.7458C19.7641 31.8917 25.5394 37.2658 28.5133 35.7505C31.3732 34.2933 30.6013 26.9908 26.8464 19.1886" stroke="#030E15" stroke-width="2" stroke-linecap="round" stroke-linejoin="round"/>
<path d="M21.5242 21.2338C21.5239 21.4639 21.3373 21.6502 21.1072 21.6501C20.8771 21.65 20.6906 21.4635 20.6905 21.2334C20.6904 21.0034 20.8768 20.8167 21.1068 20.8164C21.2176 20.8163 21.3238 20.8602 21.4021 20.9385C21.4804 21.0168 21.5243 21.123 21.5242 21.2338" stroke="#030E15" stroke-width="2" stroke-linecap="round" stroke-linejoin="round"/>
</svg>
