<svg width="34" height="34" viewBox="0 0 34 34" fill="none" xmlns="http://www.w3.org/2000/svg">
<path d="M7.0835 7.79166C7.0835 6.47663 7.60589 5.21546 8.53576 4.28559C9.46563 3.35572 10.7268 2.83333 12.0418 2.83333H17.0002V12.75H12.0418C10.7268 12.75 9.46563 12.2276 8.53576 11.2977C7.60589 10.3679 7.0835 9.10669 7.0835 7.79166Z" stroke="black" stroke-width="2" stroke-linecap="round" stroke-linejoin="round"/>
<path d="M17 2.83333H21.9583C22.6095 2.83333 23.2542 2.96158 23.8558 3.21076C24.4574 3.45994 25.004 3.82517 25.4644 4.28559C25.9248 4.74601 26.2901 5.29262 26.5392 5.89419C26.7884 6.49576 26.9167 7.14052 26.9167 7.79166C26.9167 8.4428 26.7884 9.08756 26.5392 9.68913C26.2901 10.2907 25.9248 10.8373 25.4644 11.2977C25.004 11.7582 24.4574 12.1234 23.8558 12.3726C23.2542 12.6217 22.6095 12.75 21.9583 12.75H17V2.83333Z" stroke="black" stroke-width="2" stroke-linecap="round" stroke-linejoin="round"/>
<path d="M17 17.7083C17 17.0572 17.1283 16.4124 17.3774 15.8109C17.6266 15.2093 17.9918 14.6627 18.4523 14.2023C18.9127 13.7418 19.4593 13.3766 20.0609 13.1274C20.6624 12.8783 21.3072 12.75 21.9583 12.75C22.6095 12.75 23.2542 12.8783 23.8558 13.1274C24.4574 13.3766 25.004 13.7418 25.4644 14.2023C25.9248 14.6627 26.2901 15.2093 26.5392 15.8109C26.7884 16.4124 26.9167 17.0572 26.9167 17.7083C26.9167 18.3595 26.7884 19.0042 26.5392 19.6058C26.2901 20.2074 25.9248 20.754 25.4644 21.2144C25.004 21.6748 24.4574 22.0401 23.8558 22.2892C23.2542 22.5384 22.6095 22.6667 21.9583 22.6667C21.3072 22.6667 20.6624 22.5384 20.0609 22.2892C19.4593 22.0401 18.9127 21.6748 18.4523 21.2144C17.9918 20.754 17.6266 20.2074 17.3774 19.6058C17.1283 19.0042 17 18.3595 17 17.7083Z" stroke="black" stroke-width="2" stroke-linecap="round" stroke-linejoin="round"/>
<path d="M7.0835 27.625C7.0835 26.31 7.60589 25.0488 8.53576 24.1189C9.46563 23.1891 10.7268 22.6667 12.0418 22.6667H17.0002V27.625C17.0002 28.94 16.4778 30.2012 15.5479 31.1311C14.618 32.0609 13.3569 32.5833 12.0418 32.5833C10.7268 32.5833 9.46563 32.0609 8.53576 31.1311C7.60589 30.2012 7.0835 28.94 7.0835 27.625Z" stroke="black" stroke-width="2" stroke-linecap="round" stroke-linejoin="round"/>
<path d="M7.0835 17.7083C7.0835 16.3933 7.60589 15.1321 8.53576 14.2023C9.46563 13.2724 10.7268 12.75 12.0418 12.75H17.0002V22.6667H12.0418C10.7268 22.6667 9.46563 22.1443 8.53576 21.2144C7.60589 20.2845 7.0835 19.0234 7.0835 17.7083Z" stroke="black" stroke-width="2" stroke-linecap="round" stroke-linejoin="round"/>
</svg>
