<svg width="40" height="35" viewBox="0 0 40 35" fill="none" xmlns="http://www.w3.org/2000/svg">
<path d="M25.9375 3.30227L16.9375 32.5811C16.5625 33.4224 15.9375 33.759 15.0625 33.5907C14.1875 33.2122 13.8541 32.5811 14.0625 31.6977L23.0625 2.41887C23.4375 1.57753 24.0625 1.24098 24.9375 1.40926C25.8125 1.78785 26.1459 2.41887 25.9375 3.30227ZM31.5 8.85516L39.5 16.4272C39.8333 16.7218 40 17.0583 40 17.4369C40 17.8997 39.8333 18.2993 39.5 18.6359L31.5 26.208C30.7917 26.7548 30.1041 26.7128 29.4375 26.0817C28.8541 25.3666 28.8749 24.6724 29.5 23.9994L36.3125 17.4369L29.5 11.0637C28.8749 10.3486 28.8541 9.63341 29.4375 8.91826C30.1041 8.28726 30.7917 8.26622 31.5 8.85516ZM10.5 11.0637L3.68749 17.4369L10.5 23.9994C11.125 24.6724 11.1667 25.3666 10.625 26.0817C9.91667 26.7128 9.20833 26.7548 8.5 26.208L0.5 18.6359C0.166667 18.2993 0 17.8997 0 17.4369C0 17.0583 0.166667 16.7218 0.5 16.4272L8.5 8.85516C9.20833 8.26622 9.91667 8.28726 10.625 8.91826C11.1667 9.63341 11.125 10.3486 10.5 11.0637Z" fill="#030E15"/>
</svg>
