<svg width="11" height="16" viewBox="0 0 11 16" fill="none" xmlns="http://www.w3.org/2000/svg">
<path d="M1.16077 13.4045L6.65743 7.90786L1.16077 2.4112C1.02961 2.28004 0.925569 2.12433 0.854587 1.95297C0.783605 1.7816 0.74707 1.59793 0.74707 1.41245C0.74707 1.22696 0.783605 1.04329 0.854587 0.871927C0.925569 0.700561 1.02961 0.544854 1.16077 0.413696C1.29192 0.282538 1.44763 0.178498 1.619 0.107516C1.79036 0.0365343 1.97403 -1.38197e-09 2.15952 0C2.345 1.38197e-09 2.52867 0.0365343 2.70004 0.107516C2.8714 0.178498 3.02711 0.282538 3.15827 0.413696L9.66077 6.9162C10.2133 7.4687 10.2133 8.3612 9.66077 8.9137L3.15827 15.4162C3.02721 15.5475 2.87153 15.6517 2.70015 15.7228C2.52877 15.7939 2.34505 15.8305 2.15952 15.8305C1.97398 15.8305 1.79026 15.7939 1.61888 15.7228C1.4475 15.6517 1.29183 15.5475 1.16077 15.4162C0.622433 14.8637 0.608266 13.957 1.16077 13.4045Z" fill="#F7F7F7"/>
</svg>
