<svg width="13" height="19" viewBox="0 0 13 19" fill="none" xmlns="http://www.w3.org/2000/svg">
<path d="M0.0112305 3.49243C0.0112305 1.56361 1.57485 0 3.50368 0H9.49627C11.4251 0 12.9887 1.56361 12.9887 3.49243C12.9887 4.71377 12.3618 5.78871 11.4122 6.41291C12.3618 7.03715 12.9887 8.11205 12.9887 9.33341C12.9887 11.2622 11.4251 12.8259 9.49627 12.8259H9.42043C8.51619 12.8259 7.6922 12.4822 7.07197 11.9184V15.1363C7.07197 17.0908 5.46747 18.6667 3.5225 18.6667C1.59848 18.6667 0.0112305 17.1078 0.0112305 15.1742C0.0112305 13.9529 0.638113 12.8781 1.58766 12.2538C0.638113 11.6296 0.0112305 10.5547 0.0112305 9.33341C0.0112305 8.11205 0.638168 7.03715 1.58778 6.41291C0.638168 5.78871 0.0112305 4.71377 0.0112305 3.49243ZM5.92798 6.98494H3.50368C2.20665 6.98494 1.15521 8.0364 1.15521 9.33341C1.15521 10.6254 2.19854 11.6737 3.48866 11.6818C3.49366 11.6818 3.49865 11.6818 3.50368 11.6818H5.92798V6.98494ZM7.07197 9.33341C7.07197 10.6304 8.12339 11.6819 9.42043 11.6819H9.49627C10.7933 11.6819 11.8447 10.6304 11.8447 9.33341C11.8447 8.0364 10.7933 6.98494 9.49627 6.98494H9.42043C8.12339 6.98494 7.07197 8.0364 7.07197 9.33341ZM3.50368 12.8259C3.49865 12.8259 3.49366 12.8258 3.48866 12.8258C2.19854 12.8339 1.15521 13.8822 1.15521 15.1742C1.15521 16.4665 2.2207 17.5227 3.5225 17.5227C4.84528 17.5227 5.92798 16.4495 5.92798 15.1363V12.8259H3.50368ZM3.50368 1.14398C2.20665 1.14398 1.15521 2.19542 1.15521 3.49243C1.15521 4.78946 2.20665 5.84088 3.50368 5.84088H5.92798V1.14398H3.50368ZM7.07197 5.84088H9.49627C10.7933 5.84088 11.8447 4.78946 11.8447 3.49243C11.8447 2.19542 10.7933 1.14398 9.49627 1.14398H7.07197V5.84088Z" fill="black"/>
</svg>
