<svg width="19" height="26" viewBox="0 0 19 26" fill="none" xmlns="http://www.w3.org/2000/svg">
<path d="M15.3594 3.10938C15.6406 2.39063 15.4844 1.78125 14.8906 1.28125C14.2344 0.875 13.6094 0.90625 13.0156 1.375L1.01562 11.875C0.515625 12.3438 0.375 12.8906 0.59375 13.5156C0.875 14.1406 1.34375 14.4688 2 14.5H7.25L3.64062 22.8906C3.35938 23.6094 3.51562 24.2188 4.10938 24.7188C4.76562 25.125 5.39062 25.0938 5.98438 24.625L17.9844 14.125C18.4844 13.6562 18.625 13.1094 18.4062 12.4844C18.1562 11.8594 17.6875 11.5312 17 11.5H11.7969L15.3594 3.10938Z" fill="#030E15"/>
</svg>
