<svg width="27" height="24" viewBox="0 0 27 24" fill="none" xmlns="http://www.w3.org/2000/svg">
<path d="M24 0H3C2.15625 0.03125 1.45312 0.328125 0.890625 0.890625C0.328125 1.45312 0.03125 2.15625 0 3V16.5C0.03125 17.3438 0.328125 18.0469 0.890625 18.6094C1.45312 19.1719 2.15625 19.4688 3 19.5H9.9375L9.51562 21.75H7.125C6.4375 21.8125 6.0625 22.1875 6 22.875C6.0625 23.5625 6.4375 23.9375 7.125 24H19.875C20.5625 23.9375 20.9375 23.5625 21 22.875C20.9375 22.1875 20.5625 21.8125 19.875 21.75H17.4844L17.0625 19.5H24C24.8438 19.4688 25.5469 19.1719 26.1094 18.6094C26.6719 18.0469 26.9688 17.3438 27 16.5V3C26.9688 2.15625 26.6719 1.45312 26.1094 0.890625C25.5469 0.328125 24.8438 0.03125 24 0ZM15.1875 21.75H11.8125L12.2344 19.5H14.7656L15.1875 21.75ZM24.75 16.5C24.7188 16.9688 24.4688 17.2188 24 17.25H3C2.53125 17.2188 2.28125 16.9688 2.25 16.5V14.25H24.75V16.5ZM24.75 12H2.25V3C2.28125 2.53125 2.53125 2.28125 3 2.25H24C24.4688 2.28125 24.7188 2.53125 24.75 3V12Z" fill="#030E15"/>
</svg>
