<svg width="20" height="13" viewBox="0 0 20 13" fill="none" xmlns="http://www.w3.org/2000/svg">
<path d="M5.63778 4.84449C5.61528 5.55229 5.96903 5.86572 5.97778 6.06478C5.97361 6.10529 5.95981 6.14422 5.93752 6.17831C5.91523 6.2124 5.8851 6.24065 5.84965 6.26071L5.44966 6.54071C5.3979 6.577 5.33688 6.59781 5.27373 6.60071C5.26029 6.60008 5.01779 6.65789 4.63374 5.80041C4.39942 6.09289 4.10129 6.32788 3.76217 6.4874C3.42305 6.64691 3.05192 6.72672 2.67721 6.72071C2.16846 6.74852 0.789738 6.43196 0.860674 4.96417C0.810987 3.76794 1.92503 3.02483 3.0772 3.08764C3.29907 3.08827 3.75219 3.0992 4.54561 3.28358V2.79546C4.62967 1.9686 4.08625 1.32705 3.14532 1.42329C3.07033 1.42361 2.53908 1.40767 1.71285 1.73923C1.48285 1.84485 1.45348 1.82735 1.37692 1.82735C1.14536 1.82735 1.24067 1.15611 1.28504 1.07111C1.44785 0.871115 2.40565 0.497684 3.34563 0.502996C3.97414 0.447412 4.59927 0.641385 5.08592 1.04299C5.28374 1.26426 5.43466 1.52333 5.52956 1.80455C5.62447 2.08578 5.66139 2.38332 5.6381 2.67921L5.63778 4.84449ZM2.9372 5.85666C3.95062 5.84197 4.37968 5.23261 4.47749 4.90449C4.55436 4.59043 4.54155 4.39168 4.54155 4.04825C4.23937 3.97575 3.80438 3.89669 3.30532 3.89607C2.83189 3.86044 1.96722 4.072 2.00097 4.90417C1.96222 5.42885 2.34846 5.88541 2.9372 5.85666ZM8.27836 6.57696C8.03274 6.59946 7.91837 6.42509 7.88212 6.2529L6.3259 1.10767C6.29558 1.0208 6.27558 0.931114 6.2659 0.839553C6.26016 0.801805 6.26964 0.763321 6.29225 0.732559C6.31487 0.701796 6.34878 0.681271 6.38652 0.675493C6.39402 0.674243 6.31996 0.675493 7.08182 0.675493C7.35619 0.647994 7.44557 0.863928 7.474 0.999551L8.59023 5.40042L9.62647 0.999551C9.64303 0.898927 9.71834 0.653619 10.0265 0.679556H10.5627C10.6305 0.673931 10.9099 0.663931 10.9589 1.00361L12.0033 5.46073L13.1555 1.00361C13.1705 0.935489 13.2405 0.648307 13.5517 0.679556H14.168C14.1945 0.675494 14.3601 0.654244 14.332 0.947676C14.3186 1.00549 14.4386 0.614557 12.6836 6.25696C12.6477 6.42915 12.533 6.60352 12.2874 6.58102H11.7033C11.3614 6.61696 11.3124 6.27915 11.3071 6.24509L10.2708 1.95985L9.24647 6.24071C9.24147 6.27478 9.19241 6.61258 8.85023 6.57665H8.27836V6.57696ZM16.8245 6.75289C16.6407 6.75321 15.7645 6.74352 15.032 6.36884C14.959 6.33794 14.8969 6.28608 14.8534 6.21982C14.81 6.15356 14.7872 6.07589 14.7879 5.99666V5.66072C14.7879 5.39667 14.9817 5.4451 15.0639 5.47666C15.3776 5.60354 15.5789 5.69979 15.9642 5.77666C17.1095 6.01197 17.6132 5.70479 17.7366 5.63666C18.1476 5.3926 18.1801 4.83417 17.9007 4.54449C17.5732 4.26981 17.417 4.2595 16.2404 3.88825C16.0954 3.84794 14.8748 3.46295 14.872 2.25203C14.8529 1.36954 15.6548 0.496434 17.0445 0.503621C17.4404 0.503309 18.4954 0.632682 18.781 0.991738C18.8232 1.05705 18.8441 1.13392 18.841 1.21173V1.52767C18.841 1.66641 18.7904 1.73579 18.6888 1.73579C18.4479 1.70891 18.0204 1.38673 17.1526 1.39986C16.9373 1.38861 15.9061 1.42829 15.9523 2.18016C15.9389 2.77265 16.7838 2.99483 16.8804 3.02045C18.0198 3.36326 18.4007 3.42014 18.8529 3.94481C19.3885 4.64012 19.0997 5.45416 18.9888 5.67729C18.3926 6.84883 16.8507 6.75352 16.8245 6.75289ZM18.0807 10.0297C15.8923 11.6459 12.7155 12.5062 10.003 12.5062C6.3431 12.5304 2.80652 11.1846 0.0884992 8.73349C-0.11556 8.54943 0.0644371 8.29724 0.312558 8.43755C3.32765 10.1623 6.74137 11.0685 10.2149 11.0663C12.8088 11.0523 15.3745 10.5261 17.7645 9.51785C18.1326 9.3616 18.4448 9.76159 18.0807 10.0297ZM18.9929 8.98942C18.7129 8.62943 17.1404 8.8213 16.4364 8.90536C16.2242 8.92942 16.1882 8.74536 16.3804 8.60942C17.6326 7.72913 19.6891 7.98131 19.9254 8.27724C20.1613 8.57318 19.8613 10.6338 18.6891 11.6181C18.5091 11.7703 18.3369 11.69 18.4169 11.49C18.6807 10.826 19.2729 9.34973 18.9929 8.98942Z" fill="black"/>
</svg>
