<svg width="18" height="16" viewBox="0 0 18 16" fill="none" xmlns="http://www.w3.org/2000/svg">
<path d="M16 0H2C1.4375 0.0208333 0.96875 0.21875 0.59375 0.59375C0.21875 0.96875 0.0208333 1.4375 0 2V11C0.0208333 11.5625 0.21875 12.0312 0.59375 12.4062C0.96875 12.7812 1.4375 12.9792 2 13H6.625L6.34375 14.5H4.75C4.29167 14.5417 4.04167 14.7917 4 15.25C4.04167 15.7083 4.29167 15.9583 4.75 16H13.25C13.7083 15.9583 13.9583 15.7083 14 15.25C13.9583 14.7917 13.7083 14.5417 13.25 14.5H11.6562L11.375 13H16C16.5625 12.9792 17.0312 12.7812 17.4062 12.4062C17.7812 12.0312 17.9792 11.5625 18 11V2C17.9792 1.4375 17.7812 0.96875 17.4062 0.59375C17.0312 0.21875 16.5625 0.0208333 16 0ZM10.125 14.5H7.875L8.15625 13H9.84375L10.125 14.5ZM16.5 11C16.4792 11.3125 16.3125 11.4792 16 11.5H2C1.6875 11.4792 1.52083 11.3125 1.5 11V9.5H16.5V11ZM16.5 8H1.5V2C1.52083 1.6875 1.6875 1.52083 2 1.5H16C16.3125 1.52083 16.4792 1.6875 16.5 2V8Z" fill="#030E15"/>
</svg>
