<svg width="36" height="32" viewBox="0 0 36 32" fill="none" xmlns="http://www.w3.org/2000/svg">
<path d="M32 0H4C2.875 0.0416667 1.9375 0.4375 1.1875 1.1875C0.4375 1.9375 0.0416667 2.875 0 4V22C0.0416667 23.125 0.4375 24.0625 1.1875 24.8125C1.9375 25.5625 2.875 25.9583 4 26H13.25L12.6875 29H9.5C8.58333 29.0833 8.08333 29.5833 8 30.5C8.08333 31.4167 8.58333 31.9167 9.5 32H26.5C27.4167 31.9167 27.9167 31.4167 28 30.5C27.9167 29.5833 27.4167 29.0833 26.5 29H23.3125L22.75 26H32C33.125 25.9583 34.0625 25.5625 34.8125 24.8125C35.5625 24.0625 35.9583 23.125 36 22V4C35.9583 2.875 35.5625 1.9375 34.8125 1.1875C34.0625 0.4375 33.125 0.0416667 32 0ZM20.25 29H15.75L16.3125 26H19.6875L20.25 29ZM33 22C32.9583 22.625 32.625 22.9583 32 23H4C3.375 22.9583 3.04167 22.625 3 22V19H33V22ZM33 16H3V4C3.04167 3.375 3.375 3.04167 4 3H32C32.625 3.04167 32.9583 3.375 33 4V16Z" fill="#030E15"/>
</svg>
