<svg width="15" height="17" viewBox="0 0 15 17" fill="none" xmlns="http://www.w3.org/2000/svg">
<path d="M7.49687 16.3918C7.28693 16.3918 7.07386 16.3354 6.88899 16.229L4.95568 15.0858C4.66741 14.9229 4.80842 14.8665 4.90242 14.8352C5.28782 14.7005 5.36616 14.6724 5.77663 14.4375C5.8205 14.4124 5.8769 14.4218 5.92077 14.45L7.406 15.3301C7.45927 15.3614 7.53447 15.3614 7.5846 15.3301L13.372 11.9914C13.4252 11.9601 13.4597 11.8974 13.4597 11.8348V5.15737C13.4597 5.0916 13.4252 5.03209 13.3688 4.99764L7.5846 1.66207C7.53133 1.63075 7.45927 1.63075 7.406 1.66207L1.62489 5.00077C1.56849 5.03209 1.53402 5.09473 1.53402 5.1605V11.8348C1.53402 11.8974 1.56849 11.9601 1.62489 11.9882L3.21039 12.9028C4.07207 13.3319 4.59848 12.8276 4.59848 12.3171V5.72739C4.59848 5.63343 4.67368 5.5614 4.76768 5.5614H5.5009C5.59176 5.5614 5.6701 5.63343 5.6701 5.72739V12.3202C5.6701 13.4665 5.04342 14.1243 3.95613 14.1243C3.62086 14.1243 3.35765 14.1243 2.62444 13.761L1.10788 12.8871C0.731871 12.671 0.5 12.267 0.5 11.8316V5.15737C0.5 4.72516 0.731871 4.318 1.10788 4.10189L6.88899 0.763188C7.2556 0.556476 7.74127 0.556476 8.10474 0.763188L13.8921 4.10502C14.2681 4.32113 14.5 4.72516 14.5 5.1605V11.8348C14.5 12.267 14.2681 12.671 13.8921 12.8903L8.10474 16.229C7.91987 16.3354 7.70994 16.3918 7.49687 16.3918ZM12.1688 9.81151C12.1688 8.56185 11.3227 8.22985 9.54611 7.99496C7.74754 7.75692 7.5658 7.63478 7.5658 7.21509C7.5658 6.86744 7.71934 6.4039 9.05103 6.4039C10.2386 6.4039 10.6773 6.66073 10.859 7.46252C10.8747 7.53768 10.9436 7.59406 11.0219 7.59406H11.7739C11.8209 7.59406 11.8648 7.57527 11.8961 7.54082C11.9275 7.50636 11.9432 7.45939 11.94 7.41241C11.8241 6.0312 10.906 5.38914 9.05103 5.38914C7.39973 5.38914 6.41585 6.08444 6.41585 7.25267C6.41585 8.518 7.3966 8.86878 8.97896 9.02538C10.8747 9.21017 11.0219 9.48892 11.0219 9.86162C11.0219 10.5068 10.5018 10.7824 9.2829 10.7824C7.75067 10.7824 7.4154 10.3972 7.3026 9.63612C7.29006 9.55469 7.22113 9.49518 7.13653 9.49518H6.38765C6.29364 9.49518 6.22158 9.57035 6.22158 9.66118C6.22158 10.6352 6.75112 11.7972 9.28603 11.7972C11.1159 11.7941 12.1688 11.0706 12.1688 9.81151Z" fill="black"/>
</svg>
