<svg width="24" height="17" viewBox="0 0 24 17" fill="none" xmlns="http://www.w3.org/2000/svg">
<path d="M2.4 2.45158C2.4 1.11716 3.47625 0.0322266 4.8 0.0322266H19.2C20.5238 0.0322266 21.6 1.11716 21.6 2.45158V12.129H19.2V2.45158H4.8V12.129H2.4V2.45158ZM0 14.0645C0 13.6638 0.3225 13.3387 0.72 13.3387H23.28C23.6775 13.3387 24 13.6638 24 14.0645C24 15.6673 22.71 16.9677 21.12 16.9677H2.88C1.29 16.9677 0 15.6673 0 14.0645ZM10.5375 6.72325L9.375 7.89513L10.5375 9.067C10.89 9.42235 10.89 9.99694 10.5375 10.3485C10.185 10.7001 9.615 10.7038 9.26625 10.3485L7.46625 8.53399C7.11375 8.17865 7.11375 7.60405 7.46625 7.25249L9.26625 5.43797C9.61875 5.08263 10.1888 5.08263 10.5375 5.43797C10.8863 5.79331 10.89 6.36791 10.5375 6.71947V6.72325ZM14.7375 5.43797L16.5375 7.25249C16.89 7.60783 16.89 8.18243 16.5375 8.53399L14.7375 10.3485C14.385 10.7038 13.815 10.7038 13.4663 10.3485C13.1175 9.99316 13.1138 9.41857 13.4663 9.067L14.6288 7.89513L13.4663 6.72325C13.1138 6.36791 13.1138 5.79332 13.4663 5.44175C13.8188 5.09019 14.3888 5.08641 14.7375 5.44175V5.43797Z" fill="#F7F7F7"/>
</svg>
