<svg width="30" height="22" viewBox="0 0 30 22" fill="none" xmlns="http://www.w3.org/2000/svg">
<path d="M28.875 15.5H1.125C0.4375 15.5625 0.0625 15.9375 0 16.625V17.375C0.03125 18.5312 0.4375 19.5 1.21875 20.2812C2 21.0625 2.96875 21.4688 4.125 21.5H25.875C27.0312 21.4688 28 21.0625 28.7812 20.2812C29.5625 19.5 29.9688 18.5312 30 17.375V16.625C29.9375 15.9375 29.5625 15.5625 28.875 15.5ZM25.875 19.25H4.125C3.65625 19.25 3.26562 19.1094 2.95312 18.8281C2.60938 18.5469 2.39062 18.1875 2.29688 17.75H27.7031C27.6094 18.1875 27.3906 18.5469 27.0469 18.8281C26.7344 19.1094 26.3438 19.25 25.875 19.25ZM5.25 3.125C5.28125 2.90625 5.40625 2.78125 5.625 2.75H24.375C24.5938 2.78125 24.7188 2.90625 24.75 3.125V14H27V3.125C26.9688 2.375 26.7188 1.75 26.25 1.25C25.75 0.78125 25.125 0.53125 24.375 0.5H5.625C4.875 0.53125 4.25 0.78125 3.75 1.25C3.28125 1.75 3.03125 2.375 3 3.125V14H5.25V3.125Z" fill="#030E15"/>
</svg>
