<svg width="26" height="34" viewBox="0 0 26 34" fill="none" xmlns="http://www.w3.org/2000/svg">
<path d="M20.8125 3.8125C21.1875 2.85417 20.9792 2.04167 20.1875 1.375C19.3125 0.833333 18.4792 0.875 17.6875 1.5L1.6875 15.5C1.02083 16.125 0.833333 16.8542 1.125 17.6875C1.5 18.5208 2.125 18.9583 3 19H10L5.1875 30.1875C4.8125 31.1458 5.02083 31.9583 5.8125 32.625C6.6875 33.1667 7.52083 33.125 8.3125 32.5L24.3125 18.5C24.9792 17.875 25.1667 17.1458 24.875 16.3125C24.5417 15.4792 23.9167 15.0417 23 15H16.0625L20.8125 3.8125Z" fill="#030E15"/>
</svg>
