<svg width="14" height="15" viewBox="0 0 14 15" fill="none" xmlns="http://www.w3.org/2000/svg">
<path d="M1.51573 5.05564L4.38064 12.9024C2.37661 11.9315 0.996371 9.87661 0.996371 7.5C0.996371 6.62782 1.18266 5.80363 1.51573 5.05564ZM11.0532 7.19798C11.0532 6.45565 10.7879 5.94194 10.5593 5.54113C10.2544 5.04718 9.96935 4.62661 9.96935 4.13266C9.96935 3.57944 10.3871 3.06573 10.977 3.06573C11.0024 3.06573 11.0278 3.06855 11.056 3.07137C9.98629 2.09194 8.56371 1.49355 7 1.49355C4.90282 1.49355 3.05685 2.56895 1.98145 4.2004C2.12258 4.20605 2.25524 4.20887 2.36815 4.20887C2.99476 4.20887 3.96855 4.13266 3.96855 4.13266C4.29315 4.1129 4.32984 4.58992 4.00806 4.62661C4.00806 4.62661 3.68347 4.66331 3.32218 4.68306L5.50968 11.1863L6.825 7.24597L5.89073 4.68306C5.56613 4.66331 5.26129 4.62661 5.26129 4.62661C4.93669 4.60685 4.97621 4.1129 5.29798 4.13266C5.29798 4.13266 6.28871 4.20887 6.87863 4.20887C7.50524 4.20887 8.47903 4.13266 8.47903 4.13266C8.80363 4.1129 8.84032 4.58992 8.51855 4.62661C8.51855 4.62661 8.19395 4.66331 7.83266 4.68306L10.0032 11.1383L10.6016 9.1371C10.8556 8.30726 11.0532 7.71169 11.0532 7.19798ZM7.10444 8.025L5.30363 13.2609C5.84274 13.419 6.41008 13.5065 7 13.5065C7.7 13.5065 8.36895 13.3851 8.99274 13.1649C8.97581 13.1395 8.96169 13.1113 8.9504 13.0831L7.10444 8.025ZM12.2698 4.61814C12.2952 4.81008 12.3093 5.01331 12.3093 5.23629C12.3093 5.84597 12.1964 6.52903 11.852 7.3871L10.0173 12.6907C11.804 11.6492 13.0036 9.71573 13.0036 7.5C13.0036 6.45565 12.7383 5.47339 12.2698 4.61814ZM14 7.5C14 11.3613 10.8585 14.5 7 14.5C3.13871 14.5 0 11.3585 0 7.5C0 3.63871 3.13871 0.5 7 0.5C10.8585 0.5 14 3.63871 14 7.5ZM13.6782 7.5C13.6782 3.81653 10.6806 0.821774 7 0.821774C3.31653 0.821774 0.321774 3.81653 0.321774 7.5C0.321774 11.1835 3.31936 14.1782 7 14.1782C10.6835 14.1782 13.6782 11.1835 13.6782 7.5Z" fill="black"/>
</svg>
