<svg width="14" height="15" viewBox="0 0 14 15" fill="none" xmlns="http://www.w3.org/2000/svg">
<path d="M7 0.5C3.14153 0.5 0 3.63871 0 7.5C0 11.3585 3.14153 14.5 7 14.5C10.8585 14.5 14 11.3585 14 7.5C14 3.63871 10.8585 0.5 7 0.5ZM0.705645 7.5C0.705645 6.58831 0.900403 5.72177 1.2504 4.93992L4.25363 13.1649C2.15363 12.1431 0.705645 9.98952 0.705645 7.5ZM7 13.7944C6.38185 13.7944 5.78629 13.704 5.22177 13.5375L7.11008 8.0504L9.04355 13.3512C9.05766 13.3823 9.07177 13.4105 9.08871 13.4387C8.43669 13.6673 7.73387 13.7944 7 13.7944ZM7.86653 4.5504C8.24476 4.53064 8.58629 4.49113 8.58629 4.49113C8.925 4.45161 8.88548 3.95202 8.54677 3.97177C8.54677 3.97177 7.52782 4.05081 6.87016 4.05081C6.25202 4.05081 5.21331 3.97177 5.21331 3.97177C4.8746 3.95202 4.83508 4.47137 5.17379 4.49113C5.17379 4.49113 5.49556 4.53064 5.83427 4.5504L6.81371 7.2375L5.43629 11.3669L3.14435 4.5504C3.52258 4.53064 3.86411 4.49113 3.86411 4.49113C4.20282 4.45161 4.16331 3.95202 3.8246 3.97177C3.8246 3.97177 2.80564 4.05081 2.14798 4.05081C2.02944 4.05081 1.89113 4.04798 1.74153 4.04234C2.86774 2.33468 4.80121 1.20565 7 1.20565C8.6371 1.20565 10.1302 1.83226 11.2508 2.85685C11.2226 2.85403 11.1972 2.85121 11.169 2.85121C10.5508 2.85121 10.1133 3.39032 10.1133 3.96895C10.1133 4.48831 10.4125 4.92581 10.7315 5.44516C10.9714 5.8629 11.2508 6.40202 11.2508 7.18105C11.2508 7.72016 11.0448 8.34395 10.771 9.21613L10.1444 11.3133L7.86653 4.5504ZM10.1641 12.9391L12.0863 7.38145C12.4448 6.48387 12.5661 5.76694 12.5661 5.12621C12.5661 4.89476 12.552 4.68024 12.5238 4.47984C13.0149 5.37742 13.2944 6.40484 13.2944 7.5C13.2944 9.82298 12.0355 11.8496 10.1641 12.9391Z" fill="black"/>
</svg>
