<svg width="15" height="14" viewBox="0 0 15 14" fill="none" xmlns="http://www.w3.org/2000/svg">
<path d="M0.5 0V14H14.5V0H0.5ZM8.09375 10.9375C8.09375 12.2812 7.3125 12.9062 6.125 12.9062C5.09375 12.9062 4.46875 12.375 4.15625 11.7188L5.25 11.0625C5.4375 11.4375 5.625 11.75 6.09375 11.75C6.5 11.75 6.78125 11.5625 6.78125 10.9062V6.4375H8.09375V10.9375ZM11.2188 12.9062C10 12.9062 9.21875 12.3438 8.8125 11.5625L9.90625 10.9688C10.1875 11.4062 10.5312 11.75 11.1875 11.75C11.7188 11.75 12.0938 11.4688 12.0938 11.0938C12.0938 10.6562 11.7188 10.5 11.125 10.2188L10.7812 10.0938C9.84375 9.6875 9.21875 9.1875 9.21875 8.09375C9.21875 7.125 9.96875 6.375 11.1562 6.375C11.9688 6.375 12.5938 6.65625 13 7.40625L12 8.0625C11.75 7.6875 11.5312 7.5 11.125 7.5C10.75 7.5 10.5 7.75 10.5 8.0625C10.5 8.46875 10.75 8.625 11.3125 8.875L11.6562 9.03125C12.7812 9.5 13.4062 10 13.4062 11.0938C13.4062 12.2812 12.4688 12.9062 11.2188 12.9062Z" fill="#030E15"/>
</svg>
