<svg width="18" height="13" viewBox="0 0 18 13" fill="none" xmlns="http://www.w3.org/2000/svg">
<g clip-path="url(#clip0_229_2546)">
<path d="M17.325 9.15909H0.675C0.2625 9.19602 0.0375 9.41762 0 9.82387V10.267C0.01875 10.9503 0.2625 11.5227 0.73125 11.9843C1.2 12.446 1.78125 12.6861 2.475 12.7045H15.525C16.2187 12.6861 16.8 12.446 17.2687 11.9843C17.7375 11.5227 17.9813 10.9503 18 10.267V9.82387C17.9625 9.41762 17.7375 9.19602 17.325 9.15909ZM15.525 11.375H2.475C2.19375 11.375 1.95937 11.2919 1.77187 11.1257C1.56563 10.9595 1.43437 10.7472 1.37813 10.4886H16.6219C16.5656 10.7472 16.4344 10.9595 16.2281 11.1257C16.0406 11.2919 15.8063 11.375 15.525 11.375ZM3.15 1.84659C3.16875 1.71733 3.24375 1.64347 3.375 1.625H14.625C14.7563 1.64347 14.8313 1.71733 14.85 1.84659V8.27273H16.2V1.84659C16.1813 1.40341 16.0313 1.03409 15.75 0.738638C15.45 0.461649 15.075 0.313922 14.625 0.295456H3.375C2.925 0.313922 2.55 0.461649 2.25 0.738638C1.96875 1.03409 1.81875 1.40341 1.8 1.84659V8.27273H3.15V1.84659Z" fill="#030E15"/>
</g>
<defs>
<clipPath id="clip0_229_2546">
<rect width="18" height="13" fill="white"/>
</clipPath>
</defs>
</svg>
