<svg width="32" height="37" viewBox="0 0 32 37" fill="none" xmlns="http://www.w3.org/2000/svg">
<g clip-path="url(#clip0_117_10)">
<path d="M32 5.71429C32 2.55857 29.4429 0 26.2857 0C23.1286 0 20.5714 2.55857 20.5714 5.71429C20.5714 8.26929 22.2586 10.4064 24.5714 11.1379V13.7143C24.5714 15.29 23.29 16.5714 21.7143 16.5714H10.2857C9.25143 16.5714 8.29 16.8463 7.42857 17.29V11.1357C9.74286 10.4071 11.4286 8.27143 11.4286 5.71429C11.4286 2.55857 8.87143 0 5.71429 0C2.55857 0 0 2.55857 0 5.71429C0 8.26929 1.68714 10.4064 4 11.1379V25.4307C1.68786 26.1643 0 28.3 0 30.8571C0 34.0143 2.55857 36.5714 5.71429 36.5714C8.87143 36.5714 11.4286 34.0143 11.4286 30.8571C11.4286 28.3021 9.74143 26.165 7.42857 25.4336V22.8571C7.42857 21.2814 8.71 20 10.2857 20H21.7143C25.1807 20 28 17.1807 28 13.7143V11.1357C30.3143 10.4071 32 8.27143 32 5.71429ZM5.71429 3.42857C6.97429 3.42857 8 4.45429 8 5.71429C8 6.97429 6.97429 8 5.71429 8C4.45429 8 3.42857 6.97429 3.42857 5.71429C3.42857 4.45429 4.45429 3.42857 5.71429 3.42857ZM5.71429 33.1429C4.45429 33.1429 3.42857 32.1171 3.42857 30.8571C3.42857 29.5971 4.45429 28.5714 5.71429 28.5714C6.97429 28.5714 8 29.5971 8 30.8571C8 32.1171 6.97429 33.1429 5.71429 33.1429ZM26.2857 8C25.0257 8 24 6.97429 24 5.71429C24 4.45429 25.0257 3.42857 26.2857 3.42857C27.5457 3.42857 28.5714 4.45429 28.5714 5.71429C28.5714 6.97429 27.5429 8 26.2857 8Z" fill="black"/>
</g>
<defs>
<clipPath id="clip0_117_10">
<rect width="32" height="36.5714" fill="white"/>
</clipPath>
</defs>
</svg>
