<svg width="13" height="23" viewBox="0 0 13 23" fill="none" xmlns="http://www.w3.org/2000/svg">
<path d="M0.576545 18.6811L8.23694 11.0207L0.576545 3.36035C0.393758 3.17756 0.248764 2.96056 0.14984 2.72174C0.0509167 2.48291 1.92598e-09 2.22695 0 1.96845C-1.92597e-09 1.70995 0.0509167 1.45398 0.14984 1.21515C0.248764 0.976331 0.393758 0.759332 0.576545 0.576545C0.759332 0.393758 0.976331 0.248763 1.21515 0.149839C1.45398 0.0509157 1.70995 -1.92597e-09 1.96845 0C2.22695 1.92598e-09 2.48291 0.0509157 2.72174 0.149839C2.96056 0.248763 3.17756 0.393758 3.36035 0.576545L12.4225 9.63871C13.1925 10.4087 13.1925 11.6525 12.4225 12.4225L3.36035 21.4847C3.17769 21.6677 2.96074 21.8129 2.7219 21.912C2.48306 22.0111 2.22702 22.0621 1.96845 22.0621C1.70987 22.0621 1.45384 22.0111 1.21499 21.912C0.976153 21.8129 0.759197 21.6677 0.576545 21.4847C-0.1737 20.7147 -0.193443 19.4511 0.576545 18.6811Z" fill="#030E15"/>
</svg>
