<svg width="13" height="18" viewBox="0 0 13 18" fill="none" xmlns="http://www.w3.org/2000/svg">
<path d="M10.4062 2.40625C10.5938 1.92708 10.4896 1.52083 10.0938 1.1875C9.65625 0.916667 9.23958 0.9375 8.84375 1.25L0.84375 8.25C0.510417 8.5625 0.416667 8.92708 0.5625 9.34375C0.75 9.76042 1.0625 9.97917 1.5 10H5L2.59375 15.5938C2.40625 16.0729 2.51042 16.4792 2.90625 16.8125C3.34375 17.0833 3.76042 17.0625 4.15625 16.75L12.1562 9.75C12.4896 9.4375 12.5833 9.07292 12.4375 8.65625C12.2708 8.23958 11.9583 8.02083 11.5 8H8.03125L10.4062 2.40625Z" fill="#030E15"/>
</svg>
