<svg width="20" height="23" viewBox="0 0 20 23" fill="none" xmlns="http://www.w3.org/2000/svg">
<g clip-path="url(#clip0_263_42)">
<path d="M10.0045 6.29454C7.16518 6.29454 4.875 8.58472 4.875 11.424C4.875 14.2633 7.16518 16.5535 10.0045 16.5535C12.8438 16.5535 15.1339 14.2633 15.1339 11.424C15.1339 8.58472 12.8438 6.29454 10.0045 6.29454ZM10.0045 14.7588C8.16964 14.7588 6.66964 13.2633 6.66964 11.424C6.66964 9.58472 8.16518 8.08918 10.0045 8.08918C11.8438 8.08918 13.3393 9.58472 13.3393 11.424C13.3393 13.2633 11.8393 14.7588 10.0045 14.7588ZM16.5402 6.08472C16.5402 6.7499 16.0045 7.28115 15.3438 7.28115C14.6786 7.28115 14.1473 6.74543 14.1473 6.08472C14.1473 5.424 14.683 4.88829 15.3438 4.88829C16.0045 4.88829 16.5402 5.424 16.5402 6.08472ZM19.9375 7.299C19.8616 5.69632 19.4955 4.27668 18.3214 3.10704C17.1518 1.9374 15.7321 1.57132 14.1295 1.49097C12.4777 1.39722 7.52679 1.39722 5.875 1.49097C4.27679 1.56686 2.85714 1.93293 1.68304 3.10257C0.50893 4.27222 0.147322 5.69186 0.0669651 7.29454C-0.0267849 8.94632 -0.0267849 13.8972 0.0669651 15.549C0.142858 17.1517 0.50893 18.5713 1.68304 19.741C2.85714 20.9106 4.27232 21.2767 5.875 21.357C7.52679 21.4508 12.4777 21.4508 14.1295 21.357C15.7321 21.2811 17.1518 20.9151 18.3214 19.741C19.4911 18.5713 19.8571 17.1517 19.9375 15.549C20.0313 13.8972 20.0313 8.95079 19.9375 7.299ZM17.8036 17.3213C17.4554 18.1963 16.7813 18.8704 15.9018 19.2231C14.5848 19.7454 11.4598 19.6249 10.0045 19.6249C8.54911 19.6249 5.41964 19.741 4.10714 19.2231C3.23214 18.8749 2.55804 18.2008 2.20536 17.3213C1.68304 16.0044 1.80357 12.8794 1.80357 11.424C1.80357 9.96865 1.6875 6.83918 2.20536 5.52668C2.55357 4.65168 3.22768 3.97757 4.10714 3.6249C5.42411 3.10257 8.54911 3.22311 10.0045 3.22311C11.4598 3.22311 14.5893 3.10704 15.9018 3.6249C16.7768 3.97311 17.4509 4.64722 17.8036 5.52668C18.3259 6.84365 18.2054 9.96865 18.2054 11.424C18.2054 12.8794 18.3259 16.0088 17.8036 17.3213Z" fill="#F7F7F7"/>
</g>
<defs>
<clipPath id="clip0_263_42">
<rect width="20" height="22.8571" fill="white"/>
</clipPath>
</defs>
</svg>
