<svg width="32" height="34" viewBox="0 0 32 34" fill="none" xmlns="http://www.w3.org/2000/svg">
<path d="M31.375 11L16.75 1.25C16.25 0.916667 15.75 0.916667 15.25 1.25L0.625 11C0.208333 11.25 0 11.625 0 12.125V21.875C0 22.3333 0.208333 22.7083 0.625 23L15.25 32.75C15.75 33.0833 16.25 33.0833 16.75 32.75L31.375 23C31.7917 22.7083 32 22.3333 32 21.875V12.125C32 11.625 31.7917 11.25 31.375 11ZM17.375 4.9375L28.125 12.125L23.3125 15.3125L17.375 11.375V4.9375ZM14.625 4.9375V11.375L8.6875 15.3125L3.875 12.125L14.625 4.9375ZM2.75 14.6875L6.1875 17L2.75 19.3125V14.6875ZM14.625 29.0625L3.875 21.875L8.6875 18.6875L14.625 22.625V29.0625ZM16 20.25L11.125 17L16 13.75L20.875 17L16 20.25ZM17.375 29.0625V22.625L23.3125 18.6875L28.125 21.875L17.375 29.0625ZM29.25 19.3125L25.8125 17L29.25 14.6875V19.3125Z" fill="#030E15"/>
</svg>
