<svg width="19" height="26" viewBox="0 0 19 26" fill="none" xmlns="http://www.w3.org/2000/svg">
<g clip-path="url(#clip0_227_2529)">
<path d="M15.3592 3.10938C15.6404 2.39063 15.4842 1.78125 14.8904 1.28125C14.2342 0.875003 13.6092 0.906253 13.0154 1.375L1.01539 11.875C0.515392 12.3438 0.374767 12.8906 0.593517 13.5156C0.874767 14.1406 1.34352 14.4688 1.99977 14.5H7.24977L3.64039 22.8906C3.35915 23.6094 3.51539 24.2188 4.10915 24.7188C4.76539 25.125 5.39039 25.0938 5.98415 24.625L17.9842 14.125C18.4842 13.6562 18.6248 13.1094 18.406 12.4844C18.156 11.8594 17.6873 11.5312 16.9998 11.5H11.7967L15.3592 3.10938Z" fill="#F0F5F9"/>
</g>
<defs>
<clipPath id="clip0_227_2529">
<rect width="19" height="26" fill="white"/>
</clipPath>
</defs>
</svg>
