<svg width="15" height="13" viewBox="0 0 15 13" fill="none" xmlns="http://www.w3.org/2000/svg">
<path d="M11.9352 4.34473C11.7875 4.29551 11.6398 4.24902 11.4922 4.20527C11.5168 4.1041 11.5387 4.00293 11.5605 3.90176C11.8969 2.27207 11.6754 0.962305 10.9289 0.530273C10.2098 0.117383 9.03672 0.54668 7.85 1.58027C7.73242 1.68145 7.61758 1.78809 7.5082 1.89473C7.43437 1.82363 7.35781 1.75254 7.28125 1.68418C6.03711 0.579492 4.79023 0.114648 4.04375 0.549414C3.32734 0.965039 3.11406 2.19824 3.41484 3.74043C3.44492 3.89355 3.47773 4.04395 3.51602 4.19707C3.34102 4.24629 3.16875 4.30098 3.00742 4.3584C1.54727 4.86426 0.5 5.66269 0.5 6.48848C0.5 7.3416 1.61563 8.19746 3.1332 8.71699C3.25625 8.75801 3.3793 8.79902 3.50508 8.83457C3.46406 8.99863 3.42852 9.15996 3.3957 9.32676C3.10859 10.8443 3.33281 12.0475 4.04922 12.4604C4.7875 12.8869 6.02891 12.4494 7.2375 11.3912C7.3332 11.3064 7.42891 11.2189 7.52461 11.126C7.64492 11.2436 7.7707 11.3557 7.89648 11.465C9.0668 12.4713 10.2234 12.8787 10.9371 12.4658C11.6754 12.0393 11.916 10.7459 11.6043 9.1709C11.5797 9.05059 11.5523 8.92754 11.5223 8.80176C11.6098 8.77715 11.6945 8.7498 11.7793 8.72246C13.357 8.20019 14.5 7.35527 14.5 6.48848C14.5 5.65996 13.4227 4.85605 11.9352 4.34473ZM8.23555 2.02324C9.25273 1.1373 10.2016 0.790039 10.6336 1.03887C11.0957 1.3041 11.2734 2.37598 10.9836 3.78418C10.9645 3.87715 10.9453 3.96738 10.9207 4.05762C10.3137 3.9209 9.69844 3.82246 9.08047 3.76777C8.725 3.25918 8.33672 2.77246 7.91563 2.31582C8.02227 2.21465 8.12617 2.11895 8.23555 2.02324ZM5.07188 7.90762C5.21133 8.14551 5.35352 8.3834 5.50391 8.61582C5.07734 8.56933 4.65352 8.50098 4.23516 8.41074C4.35547 8.01699 4.50586 7.60957 4.68086 7.19394C4.80664 7.43457 4.93516 7.67246 5.07188 7.90762ZM4.24336 4.61816C4.63711 4.53066 5.05547 4.45957 5.49023 4.40488C5.34531 4.63184 5.20312 4.86426 5.06914 5.09941C4.93516 5.33184 4.80391 5.56973 4.68086 5.81035C4.50859 5.40293 4.36367 5.00371 4.24336 4.61816ZM4.99258 6.50215C5.17305 6.1248 5.36992 5.75566 5.57773 5.39199C5.78555 5.02832 6.00977 4.67559 6.24492 4.32832C6.65508 4.29824 7.07344 4.28184 7.5 4.28184C7.92656 4.28184 8.34766 4.29824 8.75508 4.32832C8.9875 4.67285 9.20898 5.02559 9.41953 5.38652C9.63008 5.74746 9.82695 6.1166 10.0129 6.49121C9.82969 6.86855 9.63281 7.24043 9.42227 7.60684C9.21445 7.97051 8.99297 8.32324 8.76055 8.67324C8.35313 8.70332 7.9293 8.71699 7.5 8.71699C7.0707 8.71699 6.65508 8.70332 6.25312 8.67871C6.01523 8.33145 5.79102 7.97598 5.58047 7.6123C5.36992 7.24863 5.17578 6.87949 4.99258 6.50215ZM9.93086 7.90215C10.0703 7.66152 10.2016 7.41816 10.3301 7.17207C10.5051 7.56855 10.6582 7.97051 10.7922 8.3834C10.3684 8.4791 9.93906 8.55293 9.50703 8.60215C9.65469 8.37246 9.79414 8.1373 9.93086 7.90215ZM10.3246 5.81035C10.1961 5.56973 10.0648 5.3291 9.92812 5.09395C9.79414 4.86152 9.65469 4.63184 9.50977 4.40488C9.95 4.45957 10.3711 4.5334 10.7648 4.62363C10.6391 5.02832 10.4914 5.42207 10.3246 5.81035ZM7.50547 2.73418C7.79258 3.0459 8.06328 3.37402 8.31484 3.71309C7.77344 3.68848 7.2293 3.68848 6.68789 3.71309C6.95586 3.36035 7.23203 3.03223 7.50547 2.73418ZM4.33359 1.05801C4.79297 0.790039 5.81289 1.17285 6.8875 2.12441C6.95586 2.18457 7.02422 2.2502 7.09531 2.31582C6.67148 2.77246 6.28047 3.25918 5.92227 3.76777C5.3043 3.82246 4.6918 3.91816 4.08477 4.05215C4.04922 3.91269 4.01914 3.77051 3.98906 3.62832C3.73203 2.30488 3.90156 1.30684 4.33359 1.05801ZM3.66367 8.26582C3.54883 8.23301 3.43672 8.19746 3.32461 8.15918C2.74219 7.97598 2.08047 7.68613 1.60195 7.30605C1.32578 7.11465 1.13984 6.81934 1.08789 6.48848C1.08789 5.98809 1.95195 5.34824 3.19883 4.91348C3.35469 4.85879 3.51328 4.80957 3.67188 4.76309C3.85781 5.35644 4.08203 5.93887 4.3418 6.50215C4.0793 7.07363 3.85234 7.66426 3.66367 8.26582ZM6.85195 10.9455C6.40078 11.3584 5.87852 11.6865 5.30977 11.9107C5.00625 12.0557 4.65625 12.0693 4.34453 11.9463C3.90977 11.6947 3.7293 10.7295 3.97539 9.43066C4.00547 9.27754 4.03828 9.12441 4.07656 8.97402C4.68906 9.10527 5.30703 9.19551 5.9332 9.24199C6.29414 9.75332 6.69062 10.2428 7.11445 10.7021C7.02695 10.7869 6.93945 10.8689 6.85195 10.9455ZM7.52187 10.2811C7.24297 9.98027 6.96406 9.64668 6.69336 9.28848C6.95586 9.29941 7.22656 9.30488 7.5 9.30488C7.78164 9.30488 8.05781 9.29941 8.33125 9.28574C8.07969 9.63301 7.80898 9.96387 7.52187 10.2811ZM11.0957 11.1014C11.0711 11.435 10.907 11.7467 10.6445 11.9572C10.2098 12.2088 9.28281 11.8807 8.28203 11.0221C8.16719 10.9236 8.05234 10.817 7.93477 10.7076C8.35312 10.2455 8.73867 9.75605 9.08867 9.24199C9.71484 9.19004 10.3383 9.09434 10.9535 8.95488C10.9809 9.06699 11.0055 9.1791 11.0273 9.28848C11.1613 9.8791 11.1832 10.4943 11.0957 11.1014ZM11.5934 8.16191C11.5168 8.18652 11.4402 8.21113 11.3609 8.23301C11.1695 7.63691 10.9344 7.05449 10.6637 6.48848C10.9262 5.93066 11.1477 5.35644 11.3336 4.76855C11.4758 4.80957 11.6125 4.85332 11.7438 4.89707C13.018 5.33457 13.9121 5.98535 13.9121 6.48301C13.9121 7.01894 12.9578 7.71074 11.5934 8.16191ZM7.5 7.75176C8.1918 7.75176 8.75234 7.19121 8.75234 6.49941C8.75234 5.80762 8.1918 5.24707 7.5 5.24707C6.8082 5.24707 6.24766 5.80762 6.24766 6.49941C6.24766 7.19121 6.8082 7.75176 7.5 7.75176Z" fill="black"/>
</svg>
