<svg width="23" height="13" viewBox="0 0 23 13" fill="none" xmlns="http://www.w3.org/2000/svg">
<path d="M11.5 1.05541C17.6597 1.05541 22.3962 3.6501 22.3962 6.49994C22.3962 9.34978 17.6561 11.9445 11.5 11.9445C5.34031 11.9445 0.60375 9.34978 0.60375 6.49994C0.60375 3.6501 5.34391 1.05541 11.5 1.05541ZM11.5 0.45166C5.14984 0.45166 0 3.15775 0 6.49994C0 9.84213 5.14984 12.5482 11.5 12.5482C17.8502 12.5482 23 9.84213 23 6.49994C23 3.15775 17.8502 0.45166 11.5 0.45166ZM7.84156 6.01479C7.55766 7.47025 6.555 7.31932 5.32234 7.31932L5.81469 4.78213C7.18031 4.78213 8.1075 4.63479 7.84156 6.01479ZM3.50031 9.88885H4.81922L5.13188 8.27885C6.60891 8.27885 7.52531 8.38666 8.37344 7.59244C9.31141 6.72994 9.55578 5.19541 8.88734 4.42635C8.53875 4.02385 7.97813 3.82619 7.21625 3.82619H4.67547L3.50031 9.88885ZM10.1739 2.2126H11.4856L11.173 3.8226C12.305 3.8226 13.3544 3.73994 13.8611 4.20713C14.393 4.69588 14.1378 5.32119 13.5628 8.27166H12.2331C12.7866 5.41822 12.8908 5.18104 12.6895 4.96541C12.4955 4.75697 12.0534 4.8001 10.9861 4.8001L10.3105 8.27166H8.99875L10.1739 2.2126ZM18.1484 6.01479C17.8609 7.49182 16.8295 7.31932 15.6292 7.31932L16.1216 4.78213C17.4944 4.78213 18.4144 4.63479 18.1484 6.01479ZM13.8072 9.88885H15.1297L15.4423 8.27885C16.9948 8.27885 17.8538 8.36869 18.6839 7.59244C19.6219 6.72994 19.8663 5.19541 19.1978 4.42635C18.8492 4.02385 18.2886 3.82619 17.5267 3.82619H14.9859L13.8072 9.88885Z" fill="black"/>
</svg>
