<svg width="42" height="34" viewBox="0 0 42 34" fill="none" xmlns="http://www.w3.org/2000/svg">
<path d="M40.425 23.1H1.575C0.705469 23.1 0 23.8087 0 24.675V25.725C0 28.9078 2.59022 31.5 5.775 31.5H36.225C39.4098 31.5 42 28.9098 42 25.725V24.675C42 23.8087 41.2978 23.1 40.425 23.1ZM36.225 28.35H5.775C4.50778 28.35 3.44662 27.4463 3.2025 26.25H38.7975C38.5547 27.4444 37.4916 28.35 36.225 28.35ZM7.35 5.77498C7.35 5.48583 7.58586 5.24998 7.875 5.24998H34.125C34.4141 5.24998 34.65 5.48583 34.65 5.77498V21H37.8V5.77498C37.8 3.74913 36.1528 2.09998 34.125 2.09998H7.875C5.84916 2.09998 4.2 3.74913 4.2 5.77498V21H7.35V5.77498Z" fill="black"/>
</svg>
