<svg width="80" height="80" viewBox="0 0 80 80" fill="none" xmlns="http://www.w3.org/2000/svg">
<path d="M72.4383 3.72001C72.1343 3.38881 71.7071 3.20001 71.2575 3.20001H8.74233C8.29273 3.20001 7.86553 3.38881 7.56153 3.72001C7.25753 4.05121 7.10873 4.49601 7.14873 4.94241L12.7807 68.0256C12.8399 68.6848 13.2991 69.24 13.9359 69.4224L39.5519 76.7392C39.6943 76.7792 39.8431 76.8 39.9903 76.8C40.1375 76.8 40.2863 76.7792 40.4287 76.7392L66.0671 69.4224C66.7039 69.24 67.1631 68.6848 67.2223 68.0256L72.8511 4.94241C72.8911 4.49601 72.7407 4.05121 72.4383 3.72001ZM19.1999 46.4064L30.3999 49.5136V17.6H36.7999V59.2L19.1999 54.3184V46.4064ZM60.8863 35.2L59.1999 54.8L43.1999 59.2V51.8384L53.9999 48.8704L54.3999 42.8704L43.1999 44.8V17.6H62.3999L61.8479 24H49.5999V36.8L60.8863 35.2Z" fill="#D9D9D9"/>
</svg>
