<svg width="18" height="24" viewBox="0 0 18 24" fill="none" xmlns="http://www.w3.org/2000/svg">
<path d="M14.25 0H3.75C2.90625 0.03125 2.20312 0.328125 1.64062 0.890625C1.07812 1.45312 0.78125 2.15625 0.75 3V21C0.78125 21.8438 1.07812 22.5469 1.64062 23.1094C2.20312 23.6719 2.90625 23.9688 3.75 24H14.25C15.0938 23.9688 15.7969 23.6719 16.3594 23.1094C16.9219 22.5469 17.2188 21.8438 17.25 21V3C17.2188 2.15625 16.9219 1.45312 16.3594 0.890625C15.7969 0.328125 15.0938 0.03125 14.25 0ZM15 21C14.9688 21.4688 14.7188 21.7188 14.25 21.75H3.75C3.28125 21.7188 3.03125 21.4688 3 21V3C3.03125 2.53125 3.28125 2.28125 3.75 2.25H14.25C14.7188 2.28125 14.9688 2.53125 15 3V21ZM10.5 18.75H7.5C7.03125 18.7812 6.78125 19.0312 6.75 19.5C6.78125 19.9688 7.03125 20.2188 7.5 20.25H10.5C10.9688 20.2188 11.2188 19.9688 11.25 19.5C11.2188 19.0312 10.9688 18.7812 10.5 18.75Z" fill="#030E15"/>
</svg>
