<svg width="21" height="18" viewBox="0 0 21 18" fill="none" xmlns="http://www.w3.org/2000/svg">
<path d="M13.4688 1.96875L8.96875 16.4688C8.78125 16.8854 8.46875 17.0521 8.03125 16.9688C7.59375 16.7812 7.42708 16.4688 7.53125 16.0312L12.0312 1.53125C12.2188 1.11458 12.5312 0.947917 12.9688 1.03125C13.4062 1.21875 13.5729 1.53125 13.4688 1.96875ZM16.25 4.71875L20.25 8.46875C20.4167 8.61458 20.5 8.78125 20.5 8.96875C20.5 9.19792 20.4167 9.39583 20.25 9.5625L16.25 13.3125C15.8958 13.5833 15.5521 13.5625 15.2188 13.25C14.9271 12.8958 14.9375 12.5521 15.25 12.2188L18.6562 8.96875L15.25 5.8125C14.9375 5.45833 14.9271 5.10417 15.2188 4.75C15.5521 4.4375 15.8958 4.42708 16.25 4.71875ZM5.75 5.8125L2.34375 8.96875L5.75 12.2188C6.0625 12.5521 6.08333 12.8958 5.8125 13.25C5.45833 13.5625 5.10417 13.5833 4.75 13.3125L0.75 9.5625C0.583333 9.39583 0.5 9.19792 0.5 8.96875C0.5 8.78125 0.583333 8.61458 0.75 8.46875L4.75 4.71875C5.10417 4.42708 5.45833 4.4375 5.8125 4.75C6.08333 5.10417 6.0625 5.45833 5.75 5.8125Z" fill="#030E15"/>
</svg>
