<svg width="15" height="13" viewBox="0 0 15 13" fill="none" xmlns="http://www.w3.org/2000/svg">
<path d="M1.3125 5.28125L6.3125 0.281249C6.5 0.0937493 6.75 -7.21238e-07 7 -6.99382e-07C7.28125 -6.74795e-07 7.53125 0.0937493 7.71875 0.281249C8.125 0.656249 8.125 1.3125 7.71875 1.6875L4.4375 5L14 5C14.5625 5 15 5.4375 15 6C15 6.53125 14.5625 7 14 7L4.4375 7L7.71875 10.2812C8.125 10.6562 8.125 11.3125 7.71875 11.6875C7.34375 12.0937 6.6875 12.0937 6.3125 11.6875L1.3125 6.6875C0.906251 6.3125 0.906251 5.65625 1.3125 5.28125Z" fill="#030E15"/>
</svg>
