<svg width="14" height="12" viewBox="0 0 14 12" fill="none" xmlns="http://www.w3.org/2000/svg">
<path d="M13.7188 6.71875C13.9062 6.51042 14 6.27083 14 6C14 5.72917 13.9062 5.48958 13.7188 5.28125L8.71875 0.28125C8.51042 0.09375 8.27083 0 8 0C7.72917 0 7.48958 0.09375 7.28125 0.28125C7.09375 0.489583 7 0.729167 7 1C7 1.27083 7.09375 1.51042 7.28125 1.71875L10.5938 5H1C0.708333 5 0.46875 5.09375 0.28125 5.28125C0.09375 5.46875 0 5.70833 0 6C0 6.29167 0.09375 6.53125 0.28125 6.71875C0.46875 6.90625 0.708333 7 1 7H10.5938L7.28125 10.2812C7.09375 10.4896 7 10.7292 7 11C7 11.2708 7.09375 11.5104 7.28125 11.7188C7.48958 11.9062 7.72917 12 8 12C8.27083 12 8.51042 11.9062 8.71875 11.7188L13.7188 6.71875Z" fill="#F7F7F7"/>
</svg>
