<svg width="14" height="19" viewBox="0 0 14 19" fill="none" xmlns="http://www.w3.org/2000/svg">
<path d="M10.137 11.4078C10.4942 11.1635 10.9901 10.9521 10.9901 10.9521C10.9901 10.9521 9.57914 11.2073 8.1755 11.324C6.45831 11.4661 4.61352 11.4953 3.68747 11.3714C1.49633 11.0797 4.8906 10.274 4.8906 10.274C4.8906 10.274 3.57445 10.1865 1.95206 10.9667C0.0379956 11.8927 6.69164 12.3156 10.137 11.4078ZM7.02341 10.2375C6.3307 8.68073 3.99372 7.31354 7.02341 4.92188C10.8027 1.93958 8.86456 0 8.86456 0C9.64841 3.08073 6.10831 4.01406 4.82862 5.92812C3.95727 7.23698 5.25518 8.64062 7.02341 10.2375ZM11.2015 3.81354C11.2052 3.81354 4.81404 5.41042 7.8656 8.925C8.76612 9.96042 7.62862 10.8937 7.62862 10.8937C7.62862 10.8937 9.91456 9.7125 8.86456 8.23594C7.88383 6.85781 7.13279 6.1724 11.2015 3.81354ZM10.9791 13.6755C10.9592 13.7103 10.9347 13.7421 10.9062 13.7703C15.5838 12.5417 13.863 9.43542 11.6281 10.2229C11.5074 10.2673 11.4031 10.3474 11.3291 10.4526C11.4596 10.4054 11.5938 10.3688 11.7302 10.3432C12.8604 10.1062 14.4828 11.8562 10.9791 13.6755ZM12.6985 15.9469C12.6985 15.9469 13.2272 16.3807 12.1188 16.7198C10.0079 17.3578 3.33966 17.551 1.48758 16.7453C0.820391 16.4573 2.07091 16.0526 2.46466 15.9687C2.873 15.8812 3.10997 15.8958 3.10997 15.8958C2.36987 15.3745 -1.677 16.9203 1.05372 17.3615C8.49997 18.5719 14.6308 16.8182 12.6985 15.9469ZM4.54789 14.4375C1.67862 15.2396 6.29425 16.8948 9.94737 15.3307C9.59109 15.1923 9.24715 15.024 8.91925 14.8276C7.28956 15.1375 6.53487 15.1594 5.05466 14.9917C3.83331 14.8531 4.54789 14.4375 4.54789 14.4375ZM11.1031 17.9813C8.23383 18.5208 4.69372 18.4589 2.59737 18.1125C2.59737 18.1089 3.02758 18.4661 5.23695 18.6083C8.59841 18.8234 13.7609 18.488 13.8812 16.8984C13.8812 16.8984 13.6479 17.5 11.1031 17.9813ZM9.51352 12.8698C7.35518 13.2854 6.10466 13.2745 4.52602 13.1104C3.30466 12.9828 4.1031 12.3922 4.1031 12.3922C0.938516 13.4422 5.86039 14.6307 10.2828 13.3365C9.99696 13.2355 9.73507 13.0767 9.51352 12.8698Z" fill="black"/>
</svg>
