<svg width="21" height="9" viewBox="0 0 21 9" fill="none" xmlns="http://www.w3.org/2000/svg">
<path d="M19.6467 3.34209C19.6467 2.70136 19.7468 2.32318 19.7468 1.63557C19.7468 0.566656 19.3529 0.222852 18.4809 0.222852H17.8402V0.97922H18.0371C18.4809 0.97922 18.5778 1.12612 18.5778 1.66995C18.5778 2.17941 18.5278 2.68886 18.5278 3.27958C18.5278 4.03595 18.7747 4.32974 19.2654 4.44539V4.49539C18.7716 4.61104 18.5278 4.90483 18.5278 5.6612C18.5278 6.25192 18.5778 6.73012 18.5778 7.27083C18.5778 7.83029 18.4622 7.97719 18.0371 7.97719V7.99281H17.8402V8.78044H18.4809C19.3498 8.78044 19.7468 8.43663 19.7468 7.36772C19.7468 6.66136 19.6467 6.2988 19.6467 5.6612C19.6467 5.3174 19.8593 4.95484 20.5 4.92359V4.07033C19.8593 4.04845 19.6467 3.68589 19.6467 3.34209ZM16.3462 4.34225C15.8524 4.14534 15.393 4.0297 15.393 3.70152C15.393 3.45461 15.5899 3.30771 15.9524 3.30771C16.315 3.30771 16.6431 3.45461 17.0026 3.71715L17.6589 2.84826C17.2495 2.53571 16.69 2.20754 15.9337 2.20754C14.8179 2.20754 14.0615 2.84826 14.0615 3.75153C14.0615 4.55478 14.7679 4.96734 15.3586 5.1955C15.868 5.39241 16.3619 5.55806 16.3619 5.88624C16.3619 6.13315 16.1649 6.29568 15.7211 6.29568C15.3117 6.29568 14.8991 6.13002 14.4553 5.78622L13.799 6.73949C14.2928 7.14893 15.046 7.43023 15.6711 7.43023C16.9838 7.43023 17.6902 6.73949 17.6902 5.83623C17.6902 4.93296 16.987 4.55478 16.3462 4.34225ZM5.12885 6.19878C5.01321 6.19878 4.86631 6.09877 4.86631 5.78935V0.219727H2.53469C1.64705 0.219727 1.25324 0.56353 1.25324 1.63245C1.25324 2.33881 1.35326 2.73262 1.35326 3.33896C1.35326 3.68277 1.14073 4.04532 0.5 4.07658V4.92984C1.14073 4.94546 1.35326 5.30802 1.35326 5.65182C1.35326 6.25817 1.25324 6.62073 1.25324 7.32709C1.25324 8.396 1.64705 8.73981 2.51907 8.73981H3.15979V7.98344H2.96288C2.55345 7.98344 2.42218 7.81779 2.42218 7.27708C2.42218 6.73637 2.47218 6.2738 2.47218 5.66745C2.47218 4.91108 2.22527 4.61729 1.73457 4.50165V4.45164C2.2284 4.33599 2.47218 4.0422 2.47218 3.28583C2.47218 2.69511 2.42218 2.21691 2.42218 1.6762C2.42218 1.13549 2.53782 0.985471 2.96288 0.985471H3.40358V5.69871C3.40358 6.70199 3.74738 7.35834 4.75066 7.35834C5.06321 7.35834 5.31013 7.30833 5.48828 7.2427L5.32263 6.17378C5.22574 6.19879 5.17886 6.19878 5.12885 6.19878ZM12.3706 4.34225C11.8611 4.14534 11.4017 4.0297 11.4017 3.70152C11.4017 3.45461 11.5986 3.30771 11.9612 3.30771C12.3237 3.30771 12.6519 3.45461 13.0113 3.71715L13.6677 2.84826C13.2582 2.53571 12.6988 2.20754 11.9424 2.20754C10.8266 2.20754 10.0702 2.84826 10.0702 3.75153C10.0702 4.55478 10.7766 4.96734 11.3673 5.1955C11.8768 5.39241 12.3706 5.55806 12.3706 5.88624C12.3706 6.13315 12.1737 6.29568 11.7299 6.29568C11.3204 6.29568 10.9079 6.13002 10.4641 5.78622L9.82333 6.73949C10.3172 7.14893 11.0704 7.43023 11.6955 7.43023C13.0082 7.43023 13.7146 6.73949 13.7146 5.83623C13.7177 4.93296 13.0113 4.55478 12.3706 4.34225ZM7.5261 2.19191C6.32591 2.19191 5.17886 3.19519 5.21011 4.77044C5.21011 6.39569 6.27903 7.34896 7.68862 7.34896C8.27934 7.34896 8.93569 7.13643 9.44515 6.7895L8.95132 5.92062C8.58876 6.13315 8.24496 6.23317 7.8824 6.23317C7.22605 6.23317 6.7166 5.92062 6.58533 5.16425H9.56079C9.57642 5.0486 9.6108 4.82044 9.6108 4.5579C9.62955 3.22645 8.90444 2.19191 7.5261 2.19191ZM6.58845 4.26098C6.68847 3.60463 7.08228 3.29208 7.54173 3.29208C8.13244 3.29208 8.36373 3.70152 8.36373 4.26098H6.58845Z" fill="black"/>
</svg>
