<svg width="30" height="26" viewBox="0 0 30 26" fill="none" xmlns="http://www.w3.org/2000/svg">
<path d="M19.4531 2.45312L12.7031 24.2031C12.4219 24.8281 11.9531 25.0781 11.2969 24.9531C10.6406 24.6719 10.3906 24.2031 10.5469 23.5469L17.2969 1.79688C17.5781 1.17188 18.0469 0.921875 18.7031 1.04688C19.3594 1.32812 19.6094 1.79688 19.4531 2.45312ZM23.625 6.57812L29.625 12.2031C29.875 12.4219 30 12.6719 30 12.9531C30 13.2969 29.875 13.5938 29.625 13.8438L23.625 19.4688C23.0938 19.875 22.5781 19.8438 22.0781 19.375C21.6406 18.8438 21.6562 18.3281 22.125 17.8281L27.2344 12.9531L22.125 8.21875C21.6562 7.6875 21.6406 7.15625 22.0781 6.625C22.5781 6.15625 23.0938 6.14062 23.625 6.57812ZM7.875 8.21875L2.76562 12.9531L7.875 17.8281C8.34375 18.3281 8.375 18.8438 7.96875 19.375C7.4375 19.8438 6.90625 19.875 6.375 19.4688L0.375 13.8438C0.125 13.5938 0 13.2969 0 12.9531C0 12.6719 0.125 12.4219 0.375 12.2031L6.375 6.57812C6.90625 6.14062 7.4375 6.15625 7.96875 6.625C8.375 7.15625 8.34375 7.6875 7.875 8.21875Z" fill="#030E15"/>
</svg>
