<svg width="32" height="43" viewBox="0 0 32 43" fill="none" xmlns="http://www.w3.org/2000/svg">
<g clip-path="url(#clip0_117_6)">
<path d="M25.3333 0H6.66667C3.72084 0 1.33334 2.39816 1.33334 5.35714V37.5C1.33334 40.459 3.72084 42.8571 6.66667 42.8571H25.3333C28.2792 42.8571 30.6667 40.459 30.6667 37.5V5.35714C30.6667 2.39816 28.275 0 25.3333 0ZM26.6667 37.5C26.6667 38.2385 26.0685 38.8393 25.3333 38.8393H6.66667C5.93167 38.8393 5.33334 38.2366 5.33334 37.5V5.35714C5.33334 4.61869 5.9315 4.01786 6.66667 4.01786H25.3333C26.0667 4.01786 26.6667 4.61886 26.6667 5.35714V37.5ZM18.6667 33.4821H13.3333C12.597 33.4821 12 34.0818 12 34.8214C12 35.5611 12.597 36.1607 13.3333 36.1607H18.6667C19.4032 36.1607 20 35.5611 20 34.8214C20 34.0818 19.4 33.4821 18.6667 33.4821Z" fill="black"/>
</g>
<defs>
<clipPath id="clip0_117_6">
<rect width="32" height="42.8571" fill="white"/>
</clipPath>
</defs>
</svg>
