<svg width="20" height="23" viewBox="0 0 20 23" fill="none" xmlns="http://www.w3.org/2000/svg">
<path d="M18.5714 1.42847H1.42411C0.638393 1.42847 0 2.07579 0 2.87043V19.9865C0 20.7811 0.638393 21.4285 1.42411 21.4285H18.5714C19.3571 21.4285 20 20.7811 20 19.9865V2.87043C20 2.07579 19.3571 1.42847 18.5714 1.42847ZM6.04464 18.5713H3.08036V9.02668H6.04911V18.5713H6.04464ZM4.5625 7.72311C3.61161 7.72311 2.84375 6.95079 2.84375 6.00436C2.84375 5.05793 3.61161 4.28561 4.5625 4.28561C5.50893 4.28561 6.28125 5.05793 6.28125 6.00436C6.28125 6.95525 5.51339 7.72311 4.5625 7.72311ZM17.1562 18.5713H14.192V13.9285C14.192 12.8213 14.1696 11.3972 12.6518 11.3972C11.1071 11.3972 10.8705 12.6026 10.8705 13.8481V18.5713H7.90625V9.02668H10.75V10.3303H10.7902C11.1875 9.58025 12.1563 8.79007 13.5982 8.79007C16.5982 8.79007 17.1562 10.7678 17.1562 13.3392V18.5713Z" fill="#F7F7F7"/>
</svg>
