<svg width="34" height="34" viewBox="0 0 34 34" fill="none" xmlns="http://www.w3.org/2000/svg">
<path d="M17.0002 31.1667C24.8242 31.1667 31.1668 24.824 31.1668 17C31.1668 9.17596 24.8242 2.83333 17.0002 2.83333C9.17613 2.83333 2.8335 9.17596 2.8335 17C2.8335 24.824 9.17613 31.1667 17.0002 31.1667Z" stroke="black" stroke-width="2" stroke-linecap="round" stroke-linejoin="round"/>
<path d="M25.5 18.4167C25.162 20.4176 24.1193 22.2316 22.5603 23.5307C21.0014 24.8298 19.0291 25.5283 17 25.5C14.9709 25.5283 12.9986 24.8298 11.4397 23.5307C9.88074 22.2316 8.83802 20.4176 8.5 18.4167H25.5Z" stroke="black" stroke-width="2" stroke-linecap="round" stroke-linejoin="round"/>
<path d="M12.75 12.75H12.7642" stroke="black" stroke-width="2" stroke-linecap="round" stroke-linejoin="round"/>
<path d="M21.25 12.75H21.2642" stroke="black" stroke-width="2" stroke-linecap="round" stroke-linejoin="round"/>
</svg>
